<?xml version="1.0" encoding="utf-8" standalone="no"?>
<!DOCTYPE svg PUBLIC "-//W3C//DTD SVG 1.1//EN"
  "http://www.w3.org/Graphics/SVG/1.1/DTD/svg11.dtd">
<!-- Created with matplotlib (http://matplotlib.org/) -->
<svg height="216pt" version="1.1" viewBox="0 0 216 216" width="216pt" xmlns="http://www.w3.org/2000/svg" xmlns:xlink="http://www.w3.org/1999/xlink">
 <defs>
  <style type="text/css">
*{stroke-linecap:butt;stroke-linejoin:round;}
  </style>
 </defs>
 <g id="figure_1">
  <g id="patch_1">
   <path d="M 0 216 
L 216 216 
L 216 0 
L 0 0 
z
" style="fill:#ffffff;"/>
  </g>
  <g id="axes_1">
   <g id="patch_2">
    <path d="M 27 192.24 
L 194.4 192.24 
L 194.4 25.92 
L 27 25.92 
z
" style="fill:#ffffff;"/>
   </g>
   <g id="matplotlib.axis_1">
    <g id="xtick_1">
     <g id="line2d_1">
      <defs>
       <path d="M 0 0 
L 0 3.5 
" id="mdb28322850" style="stroke:#000000;stroke-width:0.8;"/>
      </defs>
      <g>
       <use style="stroke:#000000;stroke-width:0.8;" x="37.4625" xlink:href="#mdb28322850" y="192.24"/>
      </g>
     </g>
     <g id="text_1">
      <!-- 0 -->
      <defs>
       <path d="M 31.78125 66.40625 
Q 24.171875 66.40625 20.328125 58.90625 
Q 16.5 51.421875 16.5 36.375 
Q 16.5 21.390625 20.328125 13.890625 
Q 24.171875 6.390625 31.78125 6.390625 
Q 39.453125 6.390625 43.28125 13.890625 
Q 47.125 21.390625 47.125 36.375 
Q 47.125 51.421875 43.28125 58.90625 
Q 39.453125 66.40625 31.78125 66.40625 
z
M 31.78125 74.21875 
Q 44.046875 74.21875 50.515625 64.515625 
Q 56.984375 54.828125 56.984375 36.375 
Q 56.984375 17.96875 50.515625 8.265625 
Q 44.046875 -1.421875 31.78125 -1.421875 
Q 19.53125 -1.421875 13.0625 8.265625 
Q 6.59375 17.96875 6.59375 36.375 
Q 6.59375 54.828125 13.0625 64.515625 
Q 19.53125 74.21875 31.78125 74.21875 
z
" id="DejaVuSans-30"/>
      </defs>
      <g transform="translate(34.28125 206.838437)scale(0.1 -0.1)">
       <use xlink:href="#DejaVuSans-30"/>
      </g>
     </g>
    </g>
    <g id="xtick_2">
     <g id="line2d_2">
      <g>
       <use style="stroke:#000000;stroke-width:0.8;" x="89.775" xlink:href="#mdb28322850" y="192.24"/>
      </g>
     </g>
     <g id="text_2">
      <!-- 50 -->
      <defs>
       <path d="M 10.796875 72.90625 
L 49.515625 72.90625 
L 49.515625 64.59375 
L 19.828125 64.59375 
L 19.828125 46.734375 
Q 21.96875 47.46875 24.109375 47.828125 
Q 26.265625 48.1875 28.421875 48.1875 
Q 40.625 48.1875 47.75 41.5 
Q 54.890625 34.8125 54.890625 23.390625 
Q 54.890625 11.625 47.5625 5.09375 
Q 40.234375 -1.421875 26.90625 -1.421875 
Q 22.3125 -1.421875 17.546875 -0.640625 
Q 12.796875 0.140625 7.71875 1.703125 
L 7.71875 11.625 
Q 12.109375 9.234375 16.796875 8.0625 
Q 21.484375 6.890625 26.703125 6.890625 
Q 35.15625 6.890625 40.078125 11.328125 
Q 45.015625 15.765625 45.015625 23.390625 
Q 45.015625 31 40.078125 35.4375 
Q 35.15625 39.890625 26.703125 39.890625 
Q 22.75 39.890625 18.8125 39.015625 
Q 14.890625 38.140625 10.796875 36.28125 
z
" id="DejaVuSans-35"/>
      </defs>
      <g transform="translate(83.4125 206.838437)scale(0.1 -0.1)">
       <use xlink:href="#DejaVuSans-35"/>
       <use x="63.623047" xlink:href="#DejaVuSans-30"/>
      </g>
     </g>
    </g>
    <g id="xtick_3">
     <g id="line2d_3">
      <g>
       <use style="stroke:#000000;stroke-width:0.8;" x="142.0875" xlink:href="#mdb28322850" y="192.24"/>
      </g>
     </g>
     <g id="text_3">
      <!-- 100 -->
      <defs>
       <path d="M 12.40625 8.296875 
L 28.515625 8.296875 
L 28.515625 63.921875 
L 10.984375 60.40625 
L 10.984375 69.390625 
L 28.421875 72.90625 
L 38.28125 72.90625 
L 38.28125 8.296875 
L 54.390625 8.296875 
L 54.390625 0 
L 12.40625 0 
z
" id="DejaVuSans-31"/>
      </defs>
      <g transform="translate(132.54375 206.838437)scale(0.1 -0.1)">
       <use xlink:href="#DejaVuSans-31"/>
       <use x="63.623047" xlink:href="#DejaVuSans-30"/>
       <use x="127.246094" xlink:href="#DejaVuSans-30"/>
      </g>
     </g>
    </g>
    <g id="xtick_4">
     <g id="line2d_4">
      <g>
       <use style="stroke:#000000;stroke-width:0.8;" x="194.4" xlink:href="#mdb28322850" y="192.24"/>
      </g>
     </g>
     <g id="text_4">
      <!-- 150 -->
      <g transform="translate(184.85625 206.838437)scale(0.1 -0.1)">
       <use xlink:href="#DejaVuSans-31"/>
       <use x="63.623047" xlink:href="#DejaVuSans-35"/>
       <use x="127.246094" xlink:href="#DejaVuSans-30"/>
      </g>
     </g>
    </g>
    <g id="text_5">
     <!-- [NO3] (mM) -->
     <defs>
      <path d="M 8.59375 75.984375 
L 29.296875 75.984375 
L 29.296875 69 
L 17.578125 69 
L 17.578125 -6.203125 
L 29.296875 -6.203125 
L 29.296875 -13.1875 
L 8.59375 -13.1875 
z
" id="DejaVuSans-5b"/>
      <path d="M 9.8125 72.90625 
L 23.09375 72.90625 
L 55.421875 11.921875 
L 55.421875 72.90625 
L 64.984375 72.90625 
L 64.984375 0 
L 51.703125 0 
L 19.390625 60.984375 
L 19.390625 0 
L 9.8125 0 
z
" id="DejaVuSans-4e"/>
      <path d="M 39.40625 66.21875 
Q 28.65625 66.21875 22.328125 58.203125 
Q 16.015625 50.203125 16.015625 36.375 
Q 16.015625 22.609375 22.328125 14.59375 
Q 28.65625 6.59375 39.40625 6.59375 
Q 50.140625 6.59375 56.421875 14.59375 
Q 62.703125 22.609375 62.703125 36.375 
Q 62.703125 50.203125 56.421875 58.203125 
Q 50.140625 66.21875 39.40625 66.21875 
z
M 39.40625 74.21875 
Q 54.734375 74.21875 63.90625 63.9375 
Q 73.09375 53.65625 73.09375 36.375 
Q 73.09375 19.140625 63.90625 8.859375 
Q 54.734375 -1.421875 39.40625 -1.421875 
Q 24.03125 -1.421875 14.8125 8.828125 
Q 5.609375 19.09375 5.609375 36.375 
Q 5.609375 53.65625 14.8125 63.9375 
Q 24.03125 74.21875 39.40625 74.21875 
z
" id="DejaVuSans-4f"/>
      <path d="M 40.578125 39.3125 
Q 47.65625 37.796875 51.625 33 
Q 55.609375 28.21875 55.609375 21.1875 
Q 55.609375 10.40625 48.1875 4.484375 
Q 40.765625 -1.421875 27.09375 -1.421875 
Q 22.515625 -1.421875 17.65625 -0.515625 
Q 12.796875 0.390625 7.625 2.203125 
L 7.625 11.71875 
Q 11.71875 9.328125 16.59375 8.109375 
Q 21.484375 6.890625 26.8125 6.890625 
Q 36.078125 6.890625 40.9375 10.546875 
Q 45.796875 14.203125 45.796875 21.1875 
Q 45.796875 27.640625 41.28125 31.265625 
Q 36.765625 34.90625 28.71875 34.90625 
L 20.21875 34.90625 
L 20.21875 43.015625 
L 29.109375 43.015625 
Q 36.375 43.015625 40.234375 45.921875 
Q 44.09375 48.828125 44.09375 54.296875 
Q 44.09375 59.90625 40.109375 62.90625 
Q 36.140625 65.921875 28.71875 65.921875 
Q 24.65625 65.921875 20.015625 65.03125 
Q 15.375 64.15625 9.8125 62.3125 
L 9.8125 71.09375 
Q 15.4375 72.65625 20.34375 73.4375 
Q 25.25 74.21875 29.59375 74.21875 
Q 40.828125 74.21875 47.359375 69.109375 
Q 53.90625 64.015625 53.90625 55.328125 
Q 53.90625 49.265625 50.4375 45.09375 
Q 46.96875 40.921875 40.578125 39.3125 
z
" id="DejaVuSans-33"/>
      <path d="M 30.421875 75.984375 
L 30.421875 -13.1875 
L 9.71875 -13.1875 
L 9.71875 -6.203125 
L 21.390625 -6.203125 
L 21.390625 69 
L 9.71875 69 
L 9.71875 75.984375 
z
" id="DejaVuSans-5d"/>
      <path id="DejaVuSans-20"/>
      <path d="M 31 75.875 
Q 24.46875 64.65625 21.28125 53.65625 
Q 18.109375 42.671875 18.109375 31.390625 
Q 18.109375 20.125 21.3125 9.0625 
Q 24.515625 -2 31 -13.1875 
L 23.1875 -13.1875 
Q 15.875 -1.703125 12.234375 9.375 
Q 8.59375 20.453125 8.59375 31.390625 
Q 8.59375 42.28125 12.203125 53.3125 
Q 15.828125 64.359375 23.1875 75.875 
z
" id="DejaVuSans-28"/>
      <path d="M 52 44.1875 
Q 55.375 50.25 60.0625 53.125 
Q 64.75 56 71.09375 56 
Q 79.640625 56 84.28125 50.015625 
Q 88.921875 44.046875 88.921875 33.015625 
L 88.921875 0 
L 79.890625 0 
L 79.890625 32.71875 
Q 79.890625 40.578125 77.09375 44.375 
Q 74.3125 48.1875 68.609375 48.1875 
Q 61.625 48.1875 57.5625 43.546875 
Q 53.515625 38.921875 53.515625 30.90625 
L 53.515625 0 
L 44.484375 0 
L 44.484375 32.71875 
Q 44.484375 40.625 41.703125 44.40625 
Q 38.921875 48.1875 33.109375 48.1875 
Q 26.21875 48.1875 22.15625 43.53125 
Q 18.109375 38.875 18.109375 30.90625 
L 18.109375 0 
L 9.078125 0 
L 9.078125 54.6875 
L 18.109375 54.6875 
L 18.109375 46.1875 
Q 21.1875 51.21875 25.484375 53.609375 
Q 29.78125 56 35.6875 56 
Q 41.65625 56 45.828125 52.96875 
Q 50 49.953125 52 44.1875 
z
" id="DejaVuSans-6d"/>
      <path d="M 9.8125 72.90625 
L 24.515625 72.90625 
L 43.109375 23.296875 
L 61.8125 72.90625 
L 76.515625 72.90625 
L 76.515625 0 
L 66.890625 0 
L 66.890625 64.015625 
L 48.09375 14.015625 
L 38.1875 14.015625 
L 19.390625 64.015625 
L 19.390625 0 
L 9.8125 0 
z
" id="DejaVuSans-4d"/>
      <path d="M 8.015625 75.875 
L 15.828125 75.875 
Q 23.140625 64.359375 26.78125 53.3125 
Q 30.421875 42.28125 30.421875 31.390625 
Q 30.421875 20.453125 26.78125 9.375 
Q 23.140625 -1.703125 15.828125 -13.1875 
L 8.015625 -13.1875 
Q 14.5 -2 17.703125 9.0625 
Q 20.90625 20.125 20.90625 31.390625 
Q 20.90625 42.671875 17.703125 53.65625 
Q 14.5 64.65625 8.015625 75.875 
z
" id="DejaVuSans-29"/>
     </defs>
     <g transform="translate(81.265625 220.516562)scale(0.1 -0.1)">
      <use xlink:href="#DejaVuSans-5b"/>
      <use x="39.013672" xlink:href="#DejaVuSans-4e"/>
      <use x="113.818359" xlink:href="#DejaVuSans-4f"/>
      <use x="192.529297" xlink:href="#DejaVuSans-33"/>
      <use x="256.152344" xlink:href="#DejaVuSans-5d"/>
      <use x="295.166016" xlink:href="#DejaVuSans-20"/>
      <use x="326.953125" xlink:href="#DejaVuSans-28"/>
      <use x="365.966797" xlink:href="#DejaVuSans-6d"/>
      <use x="463.378906" xlink:href="#DejaVuSans-4d"/>
      <use x="549.658203" xlink:href="#DejaVuSans-29"/>
     </g>
    </g>
   </g>
   <g id="matplotlib.axis_2">
    <g id="ytick_1">
     <g id="line2d_5">
      <defs>
       <path d="M 0 0 
L -3.5 0 
" id="m306cb9eb4d" style="stroke:#000000;stroke-width:0.8;"/>
      </defs>
      <g>
       <use style="stroke:#000000;stroke-width:0.8;" x="27" xlink:href="#m306cb9eb4d" y="168.48"/>
      </g>
     </g>
     <g id="text_6">
      <!-- 0 -->
      <g transform="translate(13.6375 172.279219)scale(0.1 -0.1)">
       <use xlink:href="#DejaVuSans-30"/>
      </g>
     </g>
    </g>
    <g id="ytick_2">
     <g id="line2d_6">
      <g>
       <use style="stroke:#000000;stroke-width:0.8;" x="27" xlink:href="#m306cb9eb4d" y="136.8"/>
      </g>
     </g>
     <g id="text_7">
      <!-- 20 -->
      <defs>
       <path d="M 19.1875 8.296875 
L 53.609375 8.296875 
L 53.609375 0 
L 7.328125 0 
L 7.328125 8.296875 
Q 12.9375 14.109375 22.625 23.890625 
Q 32.328125 33.6875 34.8125 36.53125 
Q 39.546875 41.84375 41.421875 45.53125 
Q 43.3125 49.21875 43.3125 52.78125 
Q 43.3125 58.59375 39.234375 62.25 
Q 35.15625 65.921875 28.609375 65.921875 
Q 23.96875 65.921875 18.8125 64.3125 
Q 13.671875 62.703125 7.8125 59.421875 
L 7.8125 69.390625 
Q 13.765625 71.78125 18.9375 73 
Q 24.125 74.21875 28.421875 74.21875 
Q 39.75 74.21875 46.484375 68.546875 
Q 53.21875 62.890625 53.21875 53.421875 
Q 53.21875 48.921875 51.53125 44.890625 
Q 49.859375 40.875 45.40625 35.40625 
Q 44.1875 33.984375 37.640625 27.21875 
Q 31.109375 20.453125 19.1875 8.296875 
z
" id="DejaVuSans-32"/>
      </defs>
      <g transform="translate(7.275 140.599219)scale(0.1 -0.1)">
       <use xlink:href="#DejaVuSans-32"/>
       <use x="63.623047" xlink:href="#DejaVuSans-30"/>
      </g>
     </g>
    </g>
    <g id="ytick_3">
     <g id="line2d_7">
      <g>
       <use style="stroke:#000000;stroke-width:0.8;" x="27" xlink:href="#m306cb9eb4d" y="105.12"/>
      </g>
     </g>
     <g id="text_8">
      <!-- 40 -->
      <defs>
       <path d="M 37.796875 64.3125 
L 12.890625 25.390625 
L 37.796875 25.390625 
z
M 35.203125 72.90625 
L 47.609375 72.90625 
L 47.609375 25.390625 
L 58.015625 25.390625 
L 58.015625 17.1875 
L 47.609375 17.1875 
L 47.609375 0 
L 37.796875 0 
L 37.796875 17.1875 
L 4.890625 17.1875 
L 4.890625 26.703125 
z
" id="DejaVuSans-34"/>
      </defs>
      <g transform="translate(7.275 108.919219)scale(0.1 -0.1)">
       <use xlink:href="#DejaVuSans-34"/>
       <use x="63.623047" xlink:href="#DejaVuSans-30"/>
      </g>
     </g>
    </g>
    <g id="ytick_4">
     <g id="line2d_8">
      <g>
       <use style="stroke:#000000;stroke-width:0.8;" x="27" xlink:href="#m306cb9eb4d" y="73.44"/>
      </g>
     </g>
     <g id="text_9">
      <!-- 60 -->
      <defs>
       <path d="M 33.015625 40.375 
Q 26.375 40.375 22.484375 35.828125 
Q 18.609375 31.296875 18.609375 23.390625 
Q 18.609375 15.53125 22.484375 10.953125 
Q 26.375 6.390625 33.015625 6.390625 
Q 39.65625 6.390625 43.53125 10.953125 
Q 47.40625 15.53125 47.40625 23.390625 
Q 47.40625 31.296875 43.53125 35.828125 
Q 39.65625 40.375 33.015625 40.375 
z
M 52.59375 71.296875 
L 52.59375 62.3125 
Q 48.875 64.0625 45.09375 64.984375 
Q 41.3125 65.921875 37.59375 65.921875 
Q 27.828125 65.921875 22.671875 59.328125 
Q 17.53125 52.734375 16.796875 39.40625 
Q 19.671875 43.65625 24.015625 45.921875 
Q 28.375 48.1875 33.59375 48.1875 
Q 44.578125 48.1875 50.953125 41.515625 
Q 57.328125 34.859375 57.328125 23.390625 
Q 57.328125 12.15625 50.6875 5.359375 
Q 44.046875 -1.421875 33.015625 -1.421875 
Q 20.359375 -1.421875 13.671875 8.265625 
Q 6.984375 17.96875 6.984375 36.375 
Q 6.984375 53.65625 15.1875 63.9375 
Q 23.390625 74.21875 37.203125 74.21875 
Q 40.921875 74.21875 44.703125 73.484375 
Q 48.484375 72.75 52.59375 71.296875 
z
" id="DejaVuSans-36"/>
      </defs>
      <g transform="translate(7.275 77.239219)scale(0.1 -0.1)">
       <use xlink:href="#DejaVuSans-36"/>
       <use x="63.623047" xlink:href="#DejaVuSans-30"/>
      </g>
     </g>
    </g>
    <g id="ytick_5">
     <g id="line2d_9">
      <g>
       <use style="stroke:#000000;stroke-width:0.8;" x="27" xlink:href="#m306cb9eb4d" y="41.76"/>
      </g>
     </g>
     <g id="text_10">
      <!-- 80 -->
      <defs>
       <path d="M 31.78125 34.625 
Q 24.75 34.625 20.71875 30.859375 
Q 16.703125 27.09375 16.703125 20.515625 
Q 16.703125 13.921875 20.71875 10.15625 
Q 24.75 6.390625 31.78125 6.390625 
Q 38.8125 6.390625 42.859375 10.171875 
Q 46.921875 13.96875 46.921875 20.515625 
Q 46.921875 27.09375 42.890625 30.859375 
Q 38.875 34.625 31.78125 34.625 
z
M 21.921875 38.8125 
Q 15.578125 40.375 12.03125 44.71875 
Q 8.5 49.078125 8.5 55.328125 
Q 8.5 64.0625 14.71875 69.140625 
Q 20.953125 74.21875 31.78125 74.21875 
Q 42.671875 74.21875 48.875 69.140625 
Q 55.078125 64.0625 55.078125 55.328125 
Q 55.078125 49.078125 51.53125 44.71875 
Q 48 40.375 41.703125 38.8125 
Q 48.828125 37.15625 52.796875 32.3125 
Q 56.78125 27.484375 56.78125 20.515625 
Q 56.78125 9.90625 50.3125 4.234375 
Q 43.84375 -1.421875 31.78125 -1.421875 
Q 19.734375 -1.421875 13.25 4.234375 
Q 6.78125 9.90625 6.78125 20.515625 
Q 6.78125 27.484375 10.78125 32.3125 
Q 14.796875 37.15625 21.921875 38.8125 
z
M 18.3125 54.390625 
Q 18.3125 48.734375 21.84375 45.5625 
Q 25.390625 42.390625 31.78125 42.390625 
Q 38.140625 42.390625 41.71875 45.5625 
Q 45.3125 48.734375 45.3125 54.390625 
Q 45.3125 60.0625 41.71875 63.234375 
Q 38.140625 66.40625 31.78125 66.40625 
Q 25.390625 66.40625 21.84375 63.234375 
Q 18.3125 60.0625 18.3125 54.390625 
z
" id="DejaVuSans-38"/>
      </defs>
      <g transform="translate(7.275 45.559219)scale(0.1 -0.1)">
       <use xlink:href="#DejaVuSans-38"/>
       <use x="63.623047" xlink:href="#DejaVuSans-30"/>
      </g>
     </g>
    </g>
    <g id="text_11">
     <!-- Erev (mV) -->
     <defs>
      <path d="M 9.8125 72.90625 
L 55.90625 72.90625 
L 55.90625 64.59375 
L 19.671875 64.59375 
L 19.671875 43.015625 
L 54.390625 43.015625 
L 54.390625 34.71875 
L 19.671875 34.71875 
L 19.671875 8.296875 
L 56.78125 8.296875 
L 56.78125 0 
L 9.8125 0 
z
" id="DejaVuSans-45"/>
      <path d="M 41.109375 46.296875 
Q 39.59375 47.171875 37.8125 47.578125 
Q 36.03125 48 33.890625 48 
Q 26.265625 48 22.1875 43.046875 
Q 18.109375 38.09375 18.109375 28.8125 
L 18.109375 0 
L 9.078125 0 
L 9.078125 54.6875 
L 18.109375 54.6875 
L 18.109375 46.1875 
Q 20.953125 51.171875 25.484375 53.578125 
Q 30.03125 56 36.53125 56 
Q 37.453125 56 38.578125 55.875 
Q 39.703125 55.765625 41.0625 55.515625 
z
" id="DejaVuSans-72"/>
      <path d="M 56.203125 29.59375 
L 56.203125 25.203125 
L 14.890625 25.203125 
Q 15.484375 15.921875 20.484375 11.0625 
Q 25.484375 6.203125 34.421875 6.203125 
Q 39.59375 6.203125 44.453125 7.46875 
Q 49.3125 8.734375 54.109375 11.28125 
L 54.109375 2.78125 
Q 49.265625 0.734375 44.1875 -0.34375 
Q 39.109375 -1.421875 33.890625 -1.421875 
Q 20.796875 -1.421875 13.15625 6.1875 
Q 5.515625 13.8125 5.515625 26.8125 
Q 5.515625 40.234375 12.765625 48.109375 
Q 20.015625 56 32.328125 56 
Q 43.359375 56 49.78125 48.890625 
Q 56.203125 41.796875 56.203125 29.59375 
z
M 47.21875 32.234375 
Q 47.125 39.59375 43.09375 43.984375 
Q 39.0625 48.390625 32.421875 48.390625 
Q 24.90625 48.390625 20.390625 44.140625 
Q 15.875 39.890625 15.1875 32.171875 
z
" id="DejaVuSans-65"/>
      <path d="M 2.984375 54.6875 
L 12.5 54.6875 
L 29.59375 8.796875 
L 46.6875 54.6875 
L 56.203125 54.6875 
L 35.6875 0 
L 23.484375 0 
z
" id="DejaVuSans-76"/>
      <path d="M 28.609375 0 
L 0.78125 72.90625 
L 11.078125 72.90625 
L 34.1875 11.53125 
L 57.328125 72.90625 
L 67.578125 72.90625 
L 39.796875 0 
z
" id="DejaVuSans-56"/>
     </defs>
     <g transform="translate(1.195312 134.110469)rotate(-90)scale(0.1 -0.1)">
      <use xlink:href="#DejaVuSans-45"/>
      <use x="63.183594" xlink:href="#DejaVuSans-72"/>
      <use x="104.265625" xlink:href="#DejaVuSans-65"/>
      <use x="165.789062" xlink:href="#DejaVuSans-76"/>
      <use x="224.96875" xlink:href="#DejaVuSans-20"/>
      <use x="256.755859" xlink:href="#DejaVuSans-28"/>
      <use x="295.769531" xlink:href="#DejaVuSans-6d"/>
      <use x="393.181641" xlink:href="#DejaVuSans-56"/>
      <use x="461.589844" xlink:href="#DejaVuSans-29"/>
     </g>
    </g>
   </g>
   <g id="LineCollection_1">
    <path clip-path="url(#pb5327936a6)" d="M 183.9375 174.0059 
L 183.9375 170.091798 
" style="fill:none;stroke:#000000;stroke-width:1.5;"/>
    <path clip-path="url(#pb5327936a6)" d="M 110.7 158.497239 
L 110.7 152.618152 
" style="fill:none;stroke:#000000;stroke-width:1.5;"/>
    <path clip-path="url(#pb5327936a6)" d="M 74.08125 140.849442 
L 74.08125 131.425629 
" style="fill:none;stroke:#000000;stroke-width:1.5;"/>
    <path clip-path="url(#pb5327936a6)" d="M 55.771875 126.208734 
L 55.771875 106.754826 
" style="fill:none;stroke:#000000;stroke-width:1.5;"/>
    <path clip-path="url(#pb5327936a6)" d="M 37.4625 86.23815 
L 37.4625 32.272446 
" style="fill:none;stroke:#000000;stroke-width:1.5;"/>
   </g>
   <g id="LineCollection_2">
    <path clip-path="url(#pb5327936a6)" d="M 183.9375 183.30296 
L 183.9375 162.359562 
" style="fill:none;stroke:#ff0000;stroke-width:1.5;"/>
    <path clip-path="url(#pb5327936a6)" d="M 110.7 171.318694 
L 110.7 155.228924 
" style="fill:none;stroke:#ff0000;stroke-width:1.5;"/>
    <path clip-path="url(#pb5327936a6)" d="M 74.08125 163.856377 
L 74.08125 133.915093 
" style="fill:none;stroke:#ff0000;stroke-width:1.5;"/>
    <path clip-path="url(#pb5327936a6)" d="M 55.771875 161.143712 
L 55.771875 122.600811 
" style="fill:none;stroke:#ff0000;stroke-width:1.5;"/>
    <path clip-path="url(#pb5327936a6)" d="M 37.4625 154.872776 
L 37.4625 102.094246 
" style="fill:none;stroke:#ff0000;stroke-width:1.5;"/>
   </g>
   <g id="line2d_10">
    <path clip-path="url(#pb5327936a6)" d="M 194.4 178.946092 
L 192.814773 178.563019 
L 191.229545 178.176242 
L 189.644318 177.785687 
L 188.059091 177.391282 
L 186.473864 176.992948 
L 184.888636 176.590606 
L 183.303409 176.184176 
L 181.718182 175.773573 
L 180.132955 175.358711 
L 178.547727 174.939501 
L 176.9625 174.515849 
L 175.377273 174.087662 
L 173.792045 173.654841 
L 172.206818 173.217285 
L 170.621591 172.774889 
L 169.036364 172.327544 
L 167.451136 171.875139 
L 165.865909 171.417558 
L 164.280682 170.95468 
L 162.695455 170.486383 
L 161.110227 170.012538 
L 159.525 169.533011 
L 157.939773 169.047664 
L 156.354545 168.556356 
L 154.769318 168.058936 
L 153.184091 167.555253 
L 151.598864 167.045144 
L 150.013636 166.528446 
L 148.428409 166.004984 
L 146.843182 165.47458 
L 145.257955 164.937048 
L 143.672727 164.392192 
L 142.0875 163.839811 
L 140.502273 163.279693 
L 138.917045 162.711619 
L 137.331818 162.135361 
L 135.746591 161.550677 
L 134.161364 160.957319 
L 132.576136 160.355025 
L 130.990909 159.743522 
L 129.405682 159.122524 
L 127.820455 158.491731 
L 126.235227 157.850829 
L 124.65 157.19949 
L 123.064773 156.537367 
L 121.479545 155.864097 
L 119.894318 155.179299 
L 118.309091 154.482572 
L 116.723864 153.773491 
L 115.138636 153.051611 
L 113.553409 152.316461 
L 111.968182 151.567545 
L 110.382955 150.804337 
L 108.797727 150.02628 
L 107.2125 149.232787 
L 105.627273 148.423231 
L 104.042045 147.596949 
L 102.456818 146.753235 
L 100.871591 145.891337 
L 99.286364 145.010456 
L 97.701136 144.109735 
L 96.115909 143.18826 
L 94.530682 142.245052 
L 92.945455 141.279062 
L 91.360227 140.289161 
L 89.775 139.274136 
L 88.189773 138.232678 
L 86.604545 137.163373 
L 85.019318 136.064691 
L 83.434091 134.934973 
L 81.848864 133.772413 
L 80.263636 132.575046 
L 78.678409 131.340721 
L 77.093182 130.067086 
L 75.507955 128.751553 
L 73.922727 127.391271 
L 72.3375 125.98309 
L 70.752273 124.523512 
L 69.167045 123.008642 
L 67.581818 121.434127 
L 65.996591 119.795076 
L 64.411364 118.085971 
L 62.826136 116.300556 
L 61.240909 114.431697 
L 59.655682 112.471211 
L 58.070455 110.409646 
L 56.485227 108.236011 
L 54.9 105.937418 
L 53.314773 103.498617 
L 51.729545 100.901388 
L 50.144318 98.123707 
L 48.559091 95.138615 
L 46.973864 91.91262 
L 45.388636 88.403396 
L 43.803409 84.556385 
L 42.218182 80.299562 
L 40.632955 75.535091 
L 39.047727 70.125286 
L 37.4625 63.86753 
" style="fill:none;stroke:#000000;stroke-linecap:square;stroke-width:1.5;"/>
   </g>
   <g id="line2d_11">
    <path clip-path="url(#pb5327936a6)" d="M 194.4 178.238797 
L 192.814773 177.957886 
L 191.229545 177.674987 
L 189.644318 177.390074 
L 188.059091 177.103116 
L 186.473864 176.814084 
L 184.888636 176.522948 
L 183.303409 176.229678 
L 181.718182 175.934241 
L 180.132955 175.636605 
L 178.547727 175.336738 
L 176.9625 175.034605 
L 175.377273 174.730172 
L 173.792045 174.423405 
L 172.206818 174.114266 
L 170.621591 173.802719 
L 169.036364 173.488726 
L 167.451136 173.172249 
L 165.865909 172.853247 
L 164.280682 172.53168 
L 162.695455 172.207507 
L 161.110227 171.880684 
L 159.525 171.551169 
L 157.939773 171.218917 
L 156.354545 170.883881 
L 154.769318 170.546014 
L 153.184091 170.20527 
L 151.598864 169.861597 
L 150.013636 169.514945 
L 148.428409 169.165262 
L 146.843182 168.812495 
L 145.257955 168.456589 
L 143.672727 168.097487 
L 142.0875 167.735131 
L 140.502273 167.369462 
L 138.917045 167.000419 
L 137.331818 166.627939 
L 135.746591 166.251958 
L 134.161364 165.872408 
L 132.576136 165.489222 
L 130.990909 165.102328 
L 129.405682 164.711656 
L 127.820455 164.317129 
L 126.235227 163.918672 
L 124.65 163.516206 
L 123.064773 163.109647 
L 121.479545 162.698914 
L 119.894318 162.283918 
L 118.309091 161.864572 
L 116.723864 161.440781 
L 115.138636 161.012452 
L 113.553409 160.579486 
L 111.968182 160.141781 
L 110.382955 159.699233 
L 108.797727 159.251733 
L 107.2125 158.79917 
L 105.627273 158.341426 
L 104.042045 157.878383 
L 102.456818 157.409916 
L 100.871591 156.935896 
L 99.286364 156.456191 
L 97.701136 155.970662 
L 96.115909 155.479166 
L 94.530682 154.981555 
L 92.945455 154.477674 
L 91.360227 153.967364 
L 89.775 153.450459 
L 88.189773 152.926785 
L 86.604545 152.396163 
L 85.019318 151.858406 
L 83.434091 151.31332 
L 81.848864 150.760703 
L 80.263636 150.200342 
L 78.678409 149.632018 
L 77.093182 149.055502 
L 75.507955 148.470553 
L 73.922727 147.876922 
L 72.3375 147.274347 
L 70.752273 146.662554 
L 69.167045 146.041257 
L 67.581818 145.410156 
L 65.996591 144.768935 
L 64.411364 144.117267 
L 62.826136 143.454804 
L 61.240909 142.781183 
L 59.655682 142.096022 
L 58.070455 141.398918 
L 56.485227 140.689447 
L 54.9 139.967163 
L 53.314773 139.231594 
L 51.729545 138.482243 
L 50.144318 137.718583 
L 48.559091 136.940058 
L 46.973864 136.146076 
L 45.388636 135.336012 
L 43.803409 134.5092 
L 42.218182 133.664934 
L 40.632955 132.802461 
L 39.047727 131.920978 
L 37.4625 131.019627 
" style="fill:none;stroke:#ff0000;stroke-linecap:square;stroke-width:1.5;"/>
   </g>
   <g id="line2d_12">
    <defs>
     <path d="M 0 3 
C 0.795609 3 1.55874 2.683901 2.12132 2.12132 
C 2.683901 1.55874 3 0.795609 3 0 
C 3 -0.795609 2.683901 -1.55874 2.12132 -2.12132 
C 1.55874 -2.683901 0.795609 -3 0 -3 
C -0.795609 -3 -1.55874 -2.683901 -2.12132 -2.12132 
C -2.683901 -1.55874 -3 -0.795609 -3 0 
C -3 0.795609 -2.683901 1.55874 -2.12132 2.12132 
C -1.55874 2.683901 -0.795609 3 0 3 
z
" id="m205a720a11" style="stroke:#000000;"/>
    </defs>
    <g clip-path="url(#pb5327936a6)">
     <use style="stroke:#000000;" x="183.9375" xlink:href="#m205a720a11" y="172.048849"/>
     <use style="stroke:#000000;" x="110.7" xlink:href="#m205a720a11" y="155.557695"/>
     <use style="stroke:#000000;" x="74.08125" xlink:href="#m205a720a11" y="136.137536"/>
     <use style="stroke:#000000;" x="55.771875" xlink:href="#m205a720a11" y="116.48178"/>
     <use style="stroke:#000000;" x="37.4625" xlink:href="#m205a720a11" y="59.255298"/>
    </g>
   </g>
   <g id="line2d_13">
    <defs>
     <path d="M 0 3 
C 0.795609 3 1.55874 2.683901 2.12132 2.12132 
C 2.683901 1.55874 3 0.795609 3 0 
C 3 -0.795609 2.683901 -1.55874 2.12132 -2.12132 
C 1.55874 -2.683901 0.795609 -3 0 -3 
C -0.795609 -3 -1.55874 -2.683901 -2.12132 -2.12132 
C -2.683901 -1.55874 -3 -0.795609 -3 0 
C -3 0.795609 -2.683901 1.55874 -2.12132 2.12132 
C -1.55874 2.683901 -0.795609 3 0 3 
z
" id="m87e754134b" style="stroke:#ff0000;"/>
    </defs>
    <g clip-path="url(#pb5327936a6)">
     <use style="fill:#ff0000;stroke:#ff0000;" x="183.9375" xlink:href="#m87e754134b" y="172.831261"/>
     <use style="fill:#ff0000;stroke:#ff0000;" x="110.7" xlink:href="#m87e754134b" y="163.273809"/>
     <use style="fill:#ff0000;stroke:#ff0000;" x="74.08125" xlink:href="#m87e754134b" y="148.885735"/>
     <use style="fill:#ff0000;stroke:#ff0000;" x="55.771875" xlink:href="#m87e754134b" y="141.872262"/>
     <use style="fill:#ff0000;stroke:#ff0000;" x="37.4625" xlink:href="#m87e754134b" y="128.483511"/>
    </g>
   </g>
   <g id="patch_3">
    <path d="M 27 192.24 
L 27 25.92 
" style="fill:none;stroke:#000000;stroke-linecap:square;stroke-linejoin:miter;stroke-width:0.8;"/>
   </g>
   <g id="patch_4">
    <path d="M 194.4 192.24 
L 194.4 25.92 
" style="fill:none;stroke:#000000;stroke-linecap:square;stroke-linejoin:miter;stroke-width:0.8;"/>
   </g>
   <g id="patch_5">
    <path d="M 27 192.24 
L 194.4 192.24 
" style="fill:none;stroke:#000000;stroke-linecap:square;stroke-linejoin:miter;stroke-width:0.8;"/>
   </g>
   <g id="patch_6">
    <path d="M 27 25.92 
L 194.4 25.92 
" style="fill:none;stroke:#000000;stroke-linecap:square;stroke-linejoin:miter;stroke-width:0.8;"/>
   </g>
  </g>
 </g>
 <defs>
  <clipPath id="pb5327936a6">
   <rect height="166.32" width="167.4" x="27" y="25.92"/>
  </clipPath>
 </defs>
</svg>
