<?xml version="1.0" encoding="utf-8" standalone="no"?>
<!DOCTYPE svg PUBLIC "-//W3C//DTD SVG 1.1//EN"
  "http://www.w3.org/Graphics/SVG/1.1/DTD/svg11.dtd">
<!-- Created with matplotlib (http://matplotlib.org/) -->
<svg height="396pt" version="1.1" viewBox="0 0 576 396" width="576pt" xmlns="http://www.w3.org/2000/svg" xmlns:xlink="http://www.w3.org/1999/xlink">
 <defs>
  <style type="text/css">
*{stroke-linecap:butt;stroke-linejoin:round;}
  </style>
 </defs>
 <g id="figure_1">
  <g id="patch_1">
   <path d="M 0 396 
L 576 396 
L 576 0 
L 0 0 
z
" style="fill:#ffffff;"/>
  </g>
  <g id="axes_1">
   <g id="patch_2">
    <path d="M 72 352.44 
L 518.4 352.44 
L 518.4 47.52 
L 72 47.52 
z
" style="fill:#eaeaf2;"/>
   </g>
   <g id="matplotlib.axis_1">
    <g id="xtick_1">
     <g id="line2d_1">
      <path clip-path="url(#p2c31c5c209)" d="M 104.255703 352.44 
L 104.255703 47.52 
" style="fill:none;stroke:#ffffff;stroke-linecap:round;"/>
     </g>
     <g id="line2d_2"/>
     <g id="text_1">
      <!-- 20 -->
      <defs>
       <path d="M 50.34375 8.453125 
L 50.34375 0 
L 3.03125 0 
Q 2.9375 3.171875 4.046875 6.109375 
Q 5.859375 10.9375 9.828125 15.625 
Q 13.8125 20.3125 21.34375 26.46875 
Q 33.015625 36.03125 37.109375 41.625 
Q 41.21875 47.21875 41.21875 52.203125 
Q 41.21875 57.421875 37.46875 61 
Q 33.734375 64.59375 27.734375 64.59375 
Q 21.390625 64.59375 17.578125 60.78125 
Q 13.765625 56.984375 13.71875 50.25 
L 4.6875 51.171875 
Q 5.609375 61.28125 11.65625 66.578125 
Q 17.71875 71.875 27.9375 71.875 
Q 38.234375 71.875 44.234375 66.15625 
Q 50.25 60.453125 50.25 52 
Q 50.25 47.703125 48.484375 43.546875 
Q 46.734375 39.40625 42.65625 34.8125 
Q 38.578125 30.21875 29.109375 22.21875 
Q 21.1875 15.578125 18.9375 13.203125 
Q 16.703125 10.84375 15.234375 8.453125 
z
" id="ArialMT-32"/>
       <path d="M 4.15625 35.296875 
Q 4.15625 48 6.765625 55.734375 
Q 9.375 63.484375 14.515625 67.671875 
Q 19.671875 71.875 27.484375 71.875 
Q 33.25 71.875 37.59375 69.546875 
Q 41.9375 67.234375 44.765625 62.859375 
Q 47.609375 58.5 49.21875 52.21875 
Q 50.828125 45.953125 50.828125 35.296875 
Q 50.828125 22.703125 48.234375 14.96875 
Q 45.65625 7.234375 40.5 3 
Q 35.359375 -1.21875 27.484375 -1.21875 
Q 17.140625 -1.21875 11.234375 6.203125 
Q 4.15625 15.140625 4.15625 35.296875 
z
M 13.1875 35.296875 
Q 13.1875 17.671875 17.3125 11.828125 
Q 21.4375 6 27.484375 6 
Q 33.546875 6 37.671875 11.859375 
Q 41.796875 17.71875 41.796875 35.296875 
Q 41.796875 52.984375 37.671875 58.78125 
Q 33.546875 64.59375 27.390625 64.59375 
Q 21.34375 64.59375 17.71875 59.46875 
Q 13.1875 52.9375 13.1875 35.296875 
z
" id="ArialMT-30"/>
      </defs>
      <g style="fill:#262626;" transform="translate(98.694765 366.597813)scale(0.1 -0.1)">
       <use xlink:href="#ArialMT-32"/>
       <use x="55.615234" xlink:href="#ArialMT-30"/>
      </g>
     </g>
    </g>
    <g id="xtick_2">
     <g id="line2d_3">
      <path clip-path="url(#p2c31c5c209)" d="M 157.605858 352.44 
L 157.605858 47.52 
" style="fill:none;stroke:#ffffff;stroke-linecap:round;"/>
     </g>
     <g id="line2d_4"/>
     <g id="text_2">
      <!-- 22 -->
      <g style="fill:#262626;" transform="translate(152.044921 366.597813)scale(0.1 -0.1)">
       <use xlink:href="#ArialMT-32"/>
       <use x="55.615234" xlink:href="#ArialMT-32"/>
      </g>
     </g>
    </g>
    <g id="xtick_3">
     <g id="line2d_5">
      <path clip-path="url(#p2c31c5c209)" d="M 210.956014 352.44 
L 210.956014 47.52 
" style="fill:none;stroke:#ffffff;stroke-linecap:round;"/>
     </g>
     <g id="line2d_6"/>
     <g id="text_3">
      <!-- 24 -->
      <defs>
       <path d="M 32.328125 0 
L 32.328125 17.140625 
L 1.265625 17.140625 
L 1.265625 25.203125 
L 33.9375 71.578125 
L 41.109375 71.578125 
L 41.109375 25.203125 
L 50.78125 25.203125 
L 50.78125 17.140625 
L 41.109375 17.140625 
L 41.109375 0 
z
M 32.328125 25.203125 
L 32.328125 57.46875 
L 9.90625 25.203125 
z
" id="ArialMT-34"/>
      </defs>
      <g style="fill:#262626;" transform="translate(205.395076 366.597813)scale(0.1 -0.1)">
       <use xlink:href="#ArialMT-32"/>
       <use x="55.615234" xlink:href="#ArialMT-34"/>
      </g>
     </g>
    </g>
    <g id="xtick_4">
     <g id="line2d_7">
      <path clip-path="url(#p2c31c5c209)" d="M 264.306169 352.44 
L 264.306169 47.52 
" style="fill:none;stroke:#ffffff;stroke-linecap:round;"/>
     </g>
     <g id="line2d_8"/>
     <g id="text_4">
      <!-- 26 -->
      <defs>
       <path d="M 49.75 54.046875 
L 41.015625 53.375 
Q 39.84375 58.546875 37.703125 60.890625 
Q 34.125 64.65625 28.90625 64.65625 
Q 24.703125 64.65625 21.53125 62.3125 
Q 17.390625 59.28125 14.984375 53.46875 
Q 12.59375 47.65625 12.5 36.921875 
Q 15.671875 41.75 20.265625 44.09375 
Q 24.859375 46.4375 29.890625 46.4375 
Q 38.671875 46.4375 44.84375 39.96875 
Q 51.03125 33.5 51.03125 23.25 
Q 51.03125 16.5 48.125 10.71875 
Q 45.21875 4.9375 40.140625 1.859375 
Q 35.0625 -1.21875 28.609375 -1.21875 
Q 17.625 -1.21875 10.6875 6.859375 
Q 3.765625 14.9375 3.765625 33.5 
Q 3.765625 54.25 11.421875 63.671875 
Q 18.109375 71.875 29.4375 71.875 
Q 37.890625 71.875 43.28125 67.140625 
Q 48.6875 62.40625 49.75 54.046875 
z
M 13.875 23.1875 
Q 13.875 18.65625 15.796875 14.5 
Q 17.71875 10.359375 21.1875 8.171875 
Q 24.65625 6 28.46875 6 
Q 34.03125 6 38.03125 10.484375 
Q 42.046875 14.984375 42.046875 22.703125 
Q 42.046875 30.125 38.078125 34.390625 
Q 34.125 38.671875 28.125 38.671875 
Q 22.171875 38.671875 18.015625 34.390625 
Q 13.875 30.125 13.875 23.1875 
z
" id="ArialMT-36"/>
      </defs>
      <g style="fill:#262626;" transform="translate(258.745232 366.597813)scale(0.1 -0.1)">
       <use xlink:href="#ArialMT-32"/>
       <use x="55.615234" xlink:href="#ArialMT-36"/>
      </g>
     </g>
    </g>
    <g id="xtick_5">
     <g id="line2d_9">
      <path clip-path="url(#p2c31c5c209)" d="M 317.656325 352.44 
L 317.656325 47.52 
" style="fill:none;stroke:#ffffff;stroke-linecap:round;"/>
     </g>
     <g id="line2d_10"/>
     <g id="text_5">
      <!-- 28 -->
      <defs>
       <path d="M 17.671875 38.8125 
Q 12.203125 40.828125 9.5625 44.53125 
Q 6.9375 48.25 6.9375 53.421875 
Q 6.9375 61.234375 12.546875 66.546875 
Q 18.171875 71.875 27.484375 71.875 
Q 36.859375 71.875 42.578125 66.421875 
Q 48.296875 60.984375 48.296875 53.171875 
Q 48.296875 48.1875 45.671875 44.5 
Q 43.0625 40.828125 37.75 38.8125 
Q 44.34375 36.671875 47.78125 31.875 
Q 51.21875 27.09375 51.21875 20.453125 
Q 51.21875 11.28125 44.71875 5.03125 
Q 38.234375 -1.21875 27.640625 -1.21875 
Q 17.046875 -1.21875 10.546875 5.046875 
Q 4.046875 11.328125 4.046875 20.703125 
Q 4.046875 27.6875 7.59375 32.390625 
Q 11.140625 37.109375 17.671875 38.8125 
z
M 15.921875 53.71875 
Q 15.921875 48.640625 19.1875 45.40625 
Q 22.46875 42.1875 27.6875 42.1875 
Q 32.765625 42.1875 36.015625 45.375 
Q 39.265625 48.578125 39.265625 53.21875 
Q 39.265625 58.0625 35.90625 61.359375 
Q 32.5625 64.65625 27.59375 64.65625 
Q 22.5625 64.65625 19.234375 61.421875 
Q 15.921875 58.203125 15.921875 53.71875 
z
M 13.09375 20.65625 
Q 13.09375 16.890625 14.875 13.375 
Q 16.65625 9.859375 20.171875 7.921875 
Q 23.6875 6 27.734375 6 
Q 34.03125 6 38.125 10.046875 
Q 42.234375 14.109375 42.234375 20.359375 
Q 42.234375 26.703125 38.015625 30.859375 
Q 33.796875 35.015625 27.4375 35.015625 
Q 21.234375 35.015625 17.15625 30.90625 
Q 13.09375 26.8125 13.09375 20.65625 
z
" id="ArialMT-38"/>
      </defs>
      <g style="fill:#262626;" transform="translate(312.095387 366.597813)scale(0.1 -0.1)">
       <use xlink:href="#ArialMT-32"/>
       <use x="55.615234" xlink:href="#ArialMT-38"/>
      </g>
     </g>
    </g>
    <g id="xtick_6">
     <g id="line2d_11">
      <path clip-path="url(#p2c31c5c209)" d="M 371.00648 352.44 
L 371.00648 47.52 
" style="fill:none;stroke:#ffffff;stroke-linecap:round;"/>
     </g>
     <g id="line2d_12"/>
     <g id="text_6">
      <!-- 30 -->
      <defs>
       <path d="M 4.203125 18.890625 
L 12.984375 20.0625 
Q 14.5 12.59375 18.140625 9.296875 
Q 21.78125 6 27 6 
Q 33.203125 6 37.46875 10.296875 
Q 41.75 14.59375 41.75 20.953125 
Q 41.75 27 37.796875 30.921875 
Q 33.84375 34.859375 27.734375 34.859375 
Q 25.25 34.859375 21.53125 33.890625 
L 22.515625 41.609375 
Q 23.390625 41.5 23.921875 41.5 
Q 29.546875 41.5 34.03125 44.421875 
Q 38.53125 47.359375 38.53125 53.46875 
Q 38.53125 58.296875 35.25 61.46875 
Q 31.984375 64.65625 26.8125 64.65625 
Q 21.6875 64.65625 18.265625 61.421875 
Q 14.84375 58.203125 13.875 51.765625 
L 5.078125 53.328125 
Q 6.6875 62.15625 12.390625 67.015625 
Q 18.109375 71.875 26.609375 71.875 
Q 32.46875 71.875 37.390625 69.359375 
Q 42.328125 66.84375 44.9375 62.5 
Q 47.5625 58.15625 47.5625 53.265625 
Q 47.5625 48.640625 45.0625 44.828125 
Q 42.578125 41.015625 37.703125 38.765625 
Q 44.046875 37.3125 47.5625 32.6875 
Q 51.078125 28.078125 51.078125 21.140625 
Q 51.078125 11.765625 44.234375 5.25 
Q 37.40625 -1.265625 26.953125 -1.265625 
Q 17.53125 -1.265625 11.296875 4.34375 
Q 5.078125 9.96875 4.203125 18.890625 
z
" id="ArialMT-33"/>
      </defs>
      <g style="fill:#262626;" transform="translate(365.445543 366.597813)scale(0.1 -0.1)">
       <use xlink:href="#ArialMT-33"/>
       <use x="55.615234" xlink:href="#ArialMT-30"/>
      </g>
     </g>
    </g>
    <g id="xtick_7">
     <g id="line2d_13">
      <path clip-path="url(#p2c31c5c209)" d="M 424.356636 352.44 
L 424.356636 47.52 
" style="fill:none;stroke:#ffffff;stroke-linecap:round;"/>
     </g>
     <g id="line2d_14"/>
     <g id="text_7">
      <!-- 32 -->
      <g style="fill:#262626;" transform="translate(418.795698 366.597813)scale(0.1 -0.1)">
       <use xlink:href="#ArialMT-33"/>
       <use x="55.615234" xlink:href="#ArialMT-32"/>
      </g>
     </g>
    </g>
    <g id="xtick_8">
     <g id="line2d_15">
      <path clip-path="url(#p2c31c5c209)" d="M 477.706791 352.44 
L 477.706791 47.52 
" style="fill:none;stroke:#ffffff;stroke-linecap:round;"/>
     </g>
     <g id="line2d_16"/>
     <g id="text_8">
      <!-- 34 -->
      <g style="fill:#262626;" transform="translate(472.145854 366.597813)scale(0.1 -0.1)">
       <use xlink:href="#ArialMT-33"/>
       <use x="55.615234" xlink:href="#ArialMT-34"/>
      </g>
     </g>
    </g>
   </g>
   <g id="matplotlib.axis_2">
    <g id="ytick_1">
     <g id="line2d_17">
      <path clip-path="url(#p2c31c5c209)" d="M 72 352.44 
L 518.4 352.44 
" style="fill:none;stroke:#ffffff;stroke-linecap:round;"/>
     </g>
     <g id="line2d_18"/>
     <g id="text_9">
      <!-- 0.0 -->
      <defs>
       <path d="M 9.078125 0 
L 9.078125 10.015625 
L 19.09375 10.015625 
L 19.09375 0 
z
" id="ArialMT-2e"/>
      </defs>
      <g style="fill:#262626;" transform="translate(51.1 356.018906)scale(0.1 -0.1)">
       <use xlink:href="#ArialMT-30"/>
       <use x="55.615234" xlink:href="#ArialMT-2e"/>
       <use x="83.398438" xlink:href="#ArialMT-30"/>
      </g>
     </g>
    </g>
    <g id="ytick_2">
     <g id="line2d_19">
      <path clip-path="url(#p2c31c5c209)" d="M 72 292.529748 
L 518.4 292.529748 
" style="fill:none;stroke:#ffffff;stroke-linecap:round;"/>
     </g>
     <g id="line2d_20"/>
     <g id="text_10">
      <!-- 0.1 -->
      <defs>
       <path d="M 37.25 0 
L 28.46875 0 
L 28.46875 56 
Q 25.296875 52.984375 20.140625 49.953125 
Q 14.984375 46.921875 10.890625 45.40625 
L 10.890625 53.90625 
Q 18.265625 57.375 23.78125 62.296875 
Q 29.296875 67.234375 31.59375 71.875 
L 37.25 71.875 
z
" id="ArialMT-31"/>
      </defs>
      <g style="fill:#262626;" transform="translate(51.1 296.108654)scale(0.1 -0.1)">
       <use xlink:href="#ArialMT-30"/>
       <use x="55.615234" xlink:href="#ArialMT-2e"/>
       <use x="83.398438" xlink:href="#ArialMT-31"/>
      </g>
     </g>
    </g>
    <g id="ytick_3">
     <g id="line2d_21">
      <path clip-path="url(#p2c31c5c209)" d="M 72 232.619496 
L 518.4 232.619496 
" style="fill:none;stroke:#ffffff;stroke-linecap:round;"/>
     </g>
     <g id="line2d_22"/>
     <g id="text_11">
      <!-- 0.2 -->
      <g style="fill:#262626;" transform="translate(51.1 236.198402)scale(0.1 -0.1)">
       <use xlink:href="#ArialMT-30"/>
       <use x="55.615234" xlink:href="#ArialMT-2e"/>
       <use x="83.398438" xlink:href="#ArialMT-32"/>
      </g>
     </g>
    </g>
    <g id="ytick_4">
     <g id="line2d_23">
      <path clip-path="url(#p2c31c5c209)" d="M 72 172.709243 
L 518.4 172.709243 
" style="fill:none;stroke:#ffffff;stroke-linecap:round;"/>
     </g>
     <g id="line2d_24"/>
     <g id="text_12">
      <!-- 0.3 -->
      <g style="fill:#262626;" transform="translate(51.1 176.28815)scale(0.1 -0.1)">
       <use xlink:href="#ArialMT-30"/>
       <use x="55.615234" xlink:href="#ArialMT-2e"/>
       <use x="83.398438" xlink:href="#ArialMT-33"/>
      </g>
     </g>
    </g>
    <g id="ytick_5">
     <g id="line2d_25">
      <path clip-path="url(#p2c31c5c209)" d="M 72 112.798991 
L 518.4 112.798991 
" style="fill:none;stroke:#ffffff;stroke-linecap:round;"/>
     </g>
     <g id="line2d_26"/>
     <g id="text_13">
      <!-- 0.4 -->
      <g style="fill:#262626;" transform="translate(51.1 116.377898)scale(0.1 -0.1)">
       <use xlink:href="#ArialMT-30"/>
       <use x="55.615234" xlink:href="#ArialMT-2e"/>
       <use x="83.398438" xlink:href="#ArialMT-34"/>
      </g>
     </g>
    </g>
    <g id="ytick_6">
     <g id="line2d_27">
      <path clip-path="url(#p2c31c5c209)" d="M 72 52.888739 
L 518.4 52.888739 
" style="fill:none;stroke:#ffffff;stroke-linecap:round;"/>
     </g>
     <g id="line2d_28"/>
     <g id="text_14">
      <!-- 0.5 -->
      <defs>
       <path d="M 4.15625 18.75 
L 13.375 19.53125 
Q 14.40625 12.796875 18.140625 9.390625 
Q 21.875 6 27.15625 6 
Q 33.5 6 37.890625 10.78125 
Q 42.28125 15.578125 42.28125 23.484375 
Q 42.28125 31 38.0625 35.34375 
Q 33.84375 39.703125 27 39.703125 
Q 22.75 39.703125 19.328125 37.765625 
Q 15.921875 35.84375 13.96875 32.765625 
L 5.71875 33.84375 
L 12.640625 70.609375 
L 48.25 70.609375 
L 48.25 62.203125 
L 19.671875 62.203125 
L 15.828125 42.96875 
Q 22.265625 47.46875 29.34375 47.46875 
Q 38.71875 47.46875 45.15625 40.96875 
Q 51.609375 34.46875 51.609375 24.265625 
Q 51.609375 14.546875 45.953125 7.46875 
Q 39.0625 -1.21875 27.15625 -1.21875 
Q 17.390625 -1.21875 11.203125 4.25 
Q 5.03125 9.71875 4.15625 18.75 
z
" id="ArialMT-35"/>
      </defs>
      <g style="fill:#262626;" transform="translate(51.1 56.467645)scale(0.1 -0.1)">
       <use xlink:href="#ArialMT-30"/>
       <use x="55.615234" xlink:href="#ArialMT-2e"/>
       <use x="83.398438" xlink:href="#ArialMT-35"/>
      </g>
     </g>
    </g>
   </g>
   <g id="patch_3">
    <path clip-path="url(#p2c31c5c209)" d="M 199.72171 352.44 
L 263.373903 352.44 
L 263.373903 252.012313 
L 199.72171 252.012313 
z
" style="fill:#ff0000;opacity:0.4;"/>
   </g>
   <g id="patch_4">
    <path clip-path="url(#p2c31c5c209)" d="M 263.373903 352.44 
L 327.026097 352.44 
L 327.026097 252.012313 
L 263.373903 252.012313 
z
" style="fill:#ff0000;opacity:0.4;"/>
   </g>
   <g id="patch_5">
    <path clip-path="url(#p2c31c5c209)" d="M 327.026097 352.44 
L 390.67829 352.44 
L 390.67829 302.226157 
L 327.026097 302.226157 
z
" style="fill:#ff0000;opacity:0.4;"/>
   </g>
   <g id="patch_6">
    <path clip-path="url(#p2c31c5c209)" d="M 280.264898 352.44 
L 302.277441 352.44 
L 302.277441 62.04 
L 280.264898 62.04 
z
" style="fill:#4c72b0;opacity:0.4;"/>
   </g>
   <g id="patch_7">
    <path clip-path="url(#p2c31c5c209)" d="M 302.277441 352.44 
L 324.289984 352.44 
L 324.289984 207.24 
L 302.277441 207.24 
z
" style="fill:#4c72b0;opacity:0.4;"/>
   </g>
   <g id="patch_8">
    <path clip-path="url(#p2c31c5c209)" d="M 324.289984 352.44 
L 346.302527 352.44 
L 346.302527 207.24 
L 324.289984 207.24 
z
" style="fill:#4c72b0;opacity:0.4;"/>
   </g>
   <g id="patch_9">
    <path clip-path="url(#p2c31c5c209)" d="M 346.302527 352.44 
L 368.31507 352.44 
L 368.31507 207.24 
L 346.302527 207.24 
z
" style="fill:#4c72b0;opacity:0.4;"/>
   </g>
   <g id="line2d_29">
    <path clip-path="url(#p2c31c5c209)" d="M 92.290909 351.685142 
L 98.681747 351.531631 
L 105.072584 351.161617 
L 111.463422 350.530665 
L 117.854259 349.57348 
L 124.245097 348.209079 
L 127.440515 347.346494 
L 130.635934 346.34883 
L 133.831353 345.205609 
L 137.026772 343.907374 
L 140.22219 342.446136 
L 143.417609 340.815817 
L 146.613028 339.012674 
L 149.808447 337.035679 
L 153.003865 334.886836 
L 156.199284 332.571413 
L 159.394703 330.098069 
L 165.78554 324.729151 
L 172.176378 318.914372 
L 181.762634 309.748089 
L 191.34889 300.652629 
L 197.739728 294.944234 
L 204.130565 289.690183 
L 207.325984 287.262866 
L 210.521403 284.977069 
L 213.716822 282.83464 
L 216.912241 280.834219 
L 220.107659 278.971696 
L 226.498497 275.633829 
L 232.889334 272.75815 
L 239.280172 270.283914 
L 245.671009 268.177268 
L 252.061847 266.450831 
L 255.257266 265.749523 
L 258.452684 265.17354 
L 261.648103 264.739788 
L 264.843522 264.467527 
L 268.038941 264.377526 
L 271.234359 264.491044 
L 274.429778 264.828692 
L 277.625197 265.40922 
L 280.820616 266.248291 
L 284.016034 267.357299 
L 287.211453 268.742312 
L 290.406872 270.403173 
L 293.602291 272.332839 
L 296.797709 274.516989 
L 299.993128 276.933933 
L 303.188547 279.554851 
L 309.579384 285.261307 
L 322.361059 297.252074 
L 325.556478 300.081574 
L 328.751897 302.74918 
L 331.947316 305.214693 
L 335.142734 307.444355 
L 338.338153 309.412039 
L 341.533572 311.100146 
L 344.728991 312.500192 
L 347.924409 313.613051 
L 351.119828 314.448836 
L 354.315247 315.026447 
L 357.510666 315.372772 
L 360.706084 315.521608 
L 363.901503 315.512324 
L 370.292341 315.195424 
L 376.683178 314.787696 
L 383.074016 314.638864 
L 386.269435 314.754315 
L 389.464853 315.034299 
L 392.660272 315.498579 
L 395.855691 316.159412 
L 399.05111 317.021461 
L 402.246528 318.082028 
L 405.441947 319.331551 
L 408.637366 320.754365 
L 411.832785 322.329647 
L 418.223622 325.835186 
L 440.591553 338.836105 
L 446.982391 341.960053 
L 450.17781 343.347888 
L 453.373228 344.612582 
L 456.568647 345.752872 
L 459.764066 346.770249 
L 466.154903 348.453183 
L 472.545741 349.710395 
L 478.936578 350.60472 
L 485.327416 351.199558 
L 491.718253 351.548523 
L 498.109091 351.688186 
L 498.109091 351.688186 
" style="fill:none;stroke:#ff0000;stroke-linecap:round;stroke-width:1.75;"/>
   </g>
   <g id="line2d_30">
    <path clip-path="url(#p2c31c5c209)" d="M 239.25843 350.507084 
L 240.59751 350.357361 
L 241.936589 350.053329 
L 243.275669 349.584027 
L 244.614748 348.933436 
L 245.953828 348.080914 
L 247.292908 347.00181 
L 248.631987 345.668279 
L 249.971067 344.0503 
L 251.310146 342.116911 
L 252.649226 339.837655 
L 253.988305 337.184194 
L 255.327385 334.13206 
L 256.666465 330.662461 
L 258.005544 326.764067 
L 259.344624 322.434652 
L 262.022783 312.527354 
L 264.700942 301.147454 
L 267.379101 288.68839 
L 274.074499 256.578496 
L 276.752659 244.923025 
L 279.430818 234.614047 
L 282.108977 225.799076 
L 284.787136 218.374345 
L 287.465295 212.021967 
L 291.482534 203.492315 
L 294.160693 197.753979 
L 296.838852 191.486749 
L 299.517012 184.425693 
L 302.195171 176.489523 
L 304.87333 167.812194 
L 310.229648 149.977152 
L 311.568728 145.936328 
L 312.907808 142.293163 
L 314.246887 139.178208 
L 315.585967 136.72436 
L 316.925046 135.061623 
L 318.264126 134.311311 
L 319.603206 134.57999 
L 320.942285 135.953532 
L 322.281365 138.491637 
L 323.620444 142.223237 
L 324.959524 147.143098 
L 326.298603 153.209897 
L 327.637683 160.345956 
L 328.976763 168.438687 
L 331.654922 186.889483 
L 339.689399 246.22393 
L 341.028479 254.562844 
L 342.367559 262.002356 
L 343.706638 268.428441 
L 345.045718 273.760102 
L 346.384797 277.95104 
L 347.723877 280.990164 
L 349.062957 282.90097 
L 350.402036 283.739908 
L 351.741116 283.593791 
L 353.080195 282.576386 
L 354.419275 280.824256 
L 355.758355 278.491999 
L 358.436514 272.76376 
L 361.114673 266.781868 
L 362.453752 264.116089 
L 363.792832 261.867019 
L 365.131912 260.16087 
L 366.470991 259.100118 
L 367.810071 258.760644 
L 369.14915 259.18999 
L 370.48823 260.406793 
L 371.82731 262.401419 
L 373.166389 265.137758 
L 374.505469 268.55606 
L 375.844548 272.576634 
L 377.183628 277.104218 
L 379.861787 287.250193 
L 386.557185 313.904467 
L 389.235344 323.202712 
L 390.574424 327.329627 
L 391.913504 331.075007 
L 393.252583 334.430168 
L 394.591663 337.397587 
L 395.930742 339.988969 
L 397.269822 342.223192 
L 398.608901 344.124236 
L 399.947981 345.719211 
L 401.287061 347.036529 
L 402.62614 348.104298 
L 403.96522 348.948939 
L 405.304299 349.594048 
L 406.643379 350.059484 
L 407.982459 350.360677 
L 409.321538 350.508128 
L 409.321538 350.508128 
" style="fill:none;stroke:#4c72b0;stroke-linecap:round;stroke-width:1.75;"/>
   </g>
   <g id="patch_10">
    <path d="M 72 352.44 
L 72 47.52 
" style="fill:none;"/>
   </g>
   <g id="patch_11">
    <path d="M 518.4 352.44 
L 518.4 47.52 
" style="fill:none;"/>
   </g>
   <g id="patch_12">
    <path d="M 72 352.44 
L 518.4 352.44 
" style="fill:none;"/>
   </g>
   <g id="patch_13">
    <path d="M 72 47.52 
L 518.4 47.52 
" style="fill:none;"/>
   </g>
  </g>
 </g>
 <defs>
  <clipPath id="p2c31c5c209">
   <rect height="304.92" width="446.4" x="72" y="47.52"/>
  </clipPath>
 </defs>
</svg>
