<?xml version="1.0" encoding="utf-8" standalone="no"?>
<!DOCTYPE svg PUBLIC "-//W3C//DTD SVG 1.1//EN"
  "http://www.w3.org/Graphics/SVG/1.1/DTD/svg11.dtd">
<!-- Created with matplotlib (http://matplotlib.org/) -->
<svg height="396pt" version="1.1" viewBox="0 0 576 396" width="576pt" xmlns="http://www.w3.org/2000/svg" xmlns:xlink="http://www.w3.org/1999/xlink">
 <defs>
  <style type="text/css">
*{stroke-linecap:butt;stroke-linejoin:round;}
  </style>
 </defs>
 <g id="figure_1">
  <g id="patch_1">
   <path d="M 0 396 
L 576 396 
L 576 0 
L 0 0 
z
" style="fill:#ffffff;"/>
  </g>
  <g id="axes_1">
   <g id="patch_2">
    <path d="M 72 352.44 
L 518.4 352.44 
L 518.4 47.52 
L 72 47.52 
z
" style="fill:#eaeaf2;"/>
   </g>
   <g id="matplotlib.axis_1">
    <g id="xtick_1">
     <g id="line2d_1">
      <path clip-path="url(#p63a7358dd7)" d="M 85.960223 352.44 
L 85.960223 47.52 
" style="fill:none;stroke:#ffffff;stroke-linecap:round;"/>
     </g>
     <g id="line2d_2"/>
     <g id="text_1">
      <!-- 40 -->
      <defs>
       <path d="M 32.328125 0 
L 32.328125 17.140625 
L 1.265625 17.140625 
L 1.265625 25.203125 
L 33.9375 71.578125 
L 41.109375 71.578125 
L 41.109375 25.203125 
L 50.78125 25.203125 
L 50.78125 17.140625 
L 41.109375 17.140625 
L 41.109375 0 
z
M 32.328125 25.203125 
L 32.328125 57.46875 
L 9.90625 25.203125 
z
" id="ArialMT-34"/>
       <path d="M 4.15625 35.296875 
Q 4.15625 48 6.765625 55.734375 
Q 9.375 63.484375 14.515625 67.671875 
Q 19.671875 71.875 27.484375 71.875 
Q 33.25 71.875 37.59375 69.546875 
Q 41.9375 67.234375 44.765625 62.859375 
Q 47.609375 58.5 49.21875 52.21875 
Q 50.828125 45.953125 50.828125 35.296875 
Q 50.828125 22.703125 48.234375 14.96875 
Q 45.65625 7.234375 40.5 3 
Q 35.359375 -1.21875 27.484375 -1.21875 
Q 17.140625 -1.21875 11.234375 6.203125 
Q 4.15625 15.140625 4.15625 35.296875 
z
M 13.1875 35.296875 
Q 13.1875 17.671875 17.3125 11.828125 
Q 21.4375 6 27.484375 6 
Q 33.546875 6 37.671875 11.859375 
Q 41.796875 17.71875 41.796875 35.296875 
Q 41.796875 52.984375 37.671875 58.78125 
Q 33.546875 64.59375 27.390625 64.59375 
Q 21.34375 64.59375 17.71875 59.46875 
Q 13.1875 52.9375 13.1875 35.296875 
z
" id="ArialMT-30"/>
      </defs>
      <g style="fill:#262626;" transform="translate(80.399285 366.597813)scale(0.1 -0.1)">
       <use xlink:href="#ArialMT-34"/>
       <use x="55.615234" xlink:href="#ArialMT-30"/>
      </g>
     </g>
    </g>
    <g id="xtick_2">
     <g id="line2d_3">
      <path clip-path="url(#p63a7358dd7)" d="M 147.695169 352.44 
L 147.695169 47.52 
" style="fill:none;stroke:#ffffff;stroke-linecap:round;"/>
     </g>
     <g id="line2d_4"/>
     <g id="text_2">
      <!-- 60 -->
      <defs>
       <path d="M 49.75 54.046875 
L 41.015625 53.375 
Q 39.84375 58.546875 37.703125 60.890625 
Q 34.125 64.65625 28.90625 64.65625 
Q 24.703125 64.65625 21.53125 62.3125 
Q 17.390625 59.28125 14.984375 53.46875 
Q 12.59375 47.65625 12.5 36.921875 
Q 15.671875 41.75 20.265625 44.09375 
Q 24.859375 46.4375 29.890625 46.4375 
Q 38.671875 46.4375 44.84375 39.96875 
Q 51.03125 33.5 51.03125 23.25 
Q 51.03125 16.5 48.125 10.71875 
Q 45.21875 4.9375 40.140625 1.859375 
Q 35.0625 -1.21875 28.609375 -1.21875 
Q 17.625 -1.21875 10.6875 6.859375 
Q 3.765625 14.9375 3.765625 33.5 
Q 3.765625 54.25 11.421875 63.671875 
Q 18.109375 71.875 29.4375 71.875 
Q 37.890625 71.875 43.28125 67.140625 
Q 48.6875 62.40625 49.75 54.046875 
z
M 13.875 23.1875 
Q 13.875 18.65625 15.796875 14.5 
Q 17.71875 10.359375 21.1875 8.171875 
Q 24.65625 6 28.46875 6 
Q 34.03125 6 38.03125 10.484375 
Q 42.046875 14.984375 42.046875 22.703125 
Q 42.046875 30.125 38.078125 34.390625 
Q 34.125 38.671875 28.125 38.671875 
Q 22.171875 38.671875 18.015625 34.390625 
Q 13.875 30.125 13.875 23.1875 
z
" id="ArialMT-36"/>
      </defs>
      <g style="fill:#262626;" transform="translate(142.134231 366.597813)scale(0.1 -0.1)">
       <use xlink:href="#ArialMT-36"/>
       <use x="55.615234" xlink:href="#ArialMT-30"/>
      </g>
     </g>
    </g>
    <g id="xtick_3">
     <g id="line2d_5">
      <path clip-path="url(#p63a7358dd7)" d="M 209.430115 352.44 
L 209.430115 47.52 
" style="fill:none;stroke:#ffffff;stroke-linecap:round;"/>
     </g>
     <g id="line2d_6"/>
     <g id="text_3">
      <!-- 80 -->
      <defs>
       <path d="M 17.671875 38.8125 
Q 12.203125 40.828125 9.5625 44.53125 
Q 6.9375 48.25 6.9375 53.421875 
Q 6.9375 61.234375 12.546875 66.546875 
Q 18.171875 71.875 27.484375 71.875 
Q 36.859375 71.875 42.578125 66.421875 
Q 48.296875 60.984375 48.296875 53.171875 
Q 48.296875 48.1875 45.671875 44.5 
Q 43.0625 40.828125 37.75 38.8125 
Q 44.34375 36.671875 47.78125 31.875 
Q 51.21875 27.09375 51.21875 20.453125 
Q 51.21875 11.28125 44.71875 5.03125 
Q 38.234375 -1.21875 27.640625 -1.21875 
Q 17.046875 -1.21875 10.546875 5.046875 
Q 4.046875 11.328125 4.046875 20.703125 
Q 4.046875 27.6875 7.59375 32.390625 
Q 11.140625 37.109375 17.671875 38.8125 
z
M 15.921875 53.71875 
Q 15.921875 48.640625 19.1875 45.40625 
Q 22.46875 42.1875 27.6875 42.1875 
Q 32.765625 42.1875 36.015625 45.375 
Q 39.265625 48.578125 39.265625 53.21875 
Q 39.265625 58.0625 35.90625 61.359375 
Q 32.5625 64.65625 27.59375 64.65625 
Q 22.5625 64.65625 19.234375 61.421875 
Q 15.921875 58.203125 15.921875 53.71875 
z
M 13.09375 20.65625 
Q 13.09375 16.890625 14.875 13.375 
Q 16.65625 9.859375 20.171875 7.921875 
Q 23.6875 6 27.734375 6 
Q 34.03125 6 38.125 10.046875 
Q 42.234375 14.109375 42.234375 20.359375 
Q 42.234375 26.703125 38.015625 30.859375 
Q 33.796875 35.015625 27.4375 35.015625 
Q 21.234375 35.015625 17.15625 30.90625 
Q 13.09375 26.8125 13.09375 20.65625 
z
" id="ArialMT-38"/>
      </defs>
      <g style="fill:#262626;" transform="translate(203.869177 366.597813)scale(0.1 -0.1)">
       <use xlink:href="#ArialMT-38"/>
       <use x="55.615234" xlink:href="#ArialMT-30"/>
      </g>
     </g>
    </g>
    <g id="xtick_4">
     <g id="line2d_7">
      <path clip-path="url(#p63a7358dd7)" d="M 271.165061 352.44 
L 271.165061 47.52 
" style="fill:none;stroke:#ffffff;stroke-linecap:round;"/>
     </g>
     <g id="line2d_8"/>
     <g id="text_4">
      <!-- 100 -->
      <defs>
       <path d="M 37.25 0 
L 28.46875 0 
L 28.46875 56 
Q 25.296875 52.984375 20.140625 49.953125 
Q 14.984375 46.921875 10.890625 45.40625 
L 10.890625 53.90625 
Q 18.265625 57.375 23.78125 62.296875 
Q 29.296875 67.234375 31.59375 71.875 
L 37.25 71.875 
z
" id="ArialMT-31"/>
      </defs>
      <g style="fill:#262626;" transform="translate(262.823655 366.597813)scale(0.1 -0.1)">
       <use xlink:href="#ArialMT-31"/>
       <use x="55.615234" xlink:href="#ArialMT-30"/>
       <use x="111.230469" xlink:href="#ArialMT-30"/>
      </g>
     </g>
    </g>
    <g id="xtick_5">
     <g id="line2d_9">
      <path clip-path="url(#p63a7358dd7)" d="M 332.900007 352.44 
L 332.900007 47.52 
" style="fill:none;stroke:#ffffff;stroke-linecap:round;"/>
     </g>
     <g id="line2d_10"/>
     <g id="text_5">
      <!-- 120 -->
      <defs>
       <path d="M 50.34375 8.453125 
L 50.34375 0 
L 3.03125 0 
Q 2.9375 3.171875 4.046875 6.109375 
Q 5.859375 10.9375 9.828125 15.625 
Q 13.8125 20.3125 21.34375 26.46875 
Q 33.015625 36.03125 37.109375 41.625 
Q 41.21875 47.21875 41.21875 52.203125 
Q 41.21875 57.421875 37.46875 61 
Q 33.734375 64.59375 27.734375 64.59375 
Q 21.390625 64.59375 17.578125 60.78125 
Q 13.765625 56.984375 13.71875 50.25 
L 4.6875 51.171875 
Q 5.609375 61.28125 11.65625 66.578125 
Q 17.71875 71.875 27.9375 71.875 
Q 38.234375 71.875 44.234375 66.15625 
Q 50.25 60.453125 50.25 52 
Q 50.25 47.703125 48.484375 43.546875 
Q 46.734375 39.40625 42.65625 34.8125 
Q 38.578125 30.21875 29.109375 22.21875 
Q 21.1875 15.578125 18.9375 13.203125 
Q 16.703125 10.84375 15.234375 8.453125 
z
" id="ArialMT-32"/>
      </defs>
      <g style="fill:#262626;" transform="translate(324.558601 366.597813)scale(0.1 -0.1)">
       <use xlink:href="#ArialMT-31"/>
       <use x="55.615234" xlink:href="#ArialMT-32"/>
       <use x="111.230469" xlink:href="#ArialMT-30"/>
      </g>
     </g>
    </g>
    <g id="xtick_6">
     <g id="line2d_11">
      <path clip-path="url(#p63a7358dd7)" d="M 394.634954 352.44 
L 394.634954 47.52 
" style="fill:none;stroke:#ffffff;stroke-linecap:round;"/>
     </g>
     <g id="line2d_12"/>
     <g id="text_6">
      <!-- 140 -->
      <g style="fill:#262626;" transform="translate(386.293547 366.597813)scale(0.1 -0.1)">
       <use xlink:href="#ArialMT-31"/>
       <use x="55.615234" xlink:href="#ArialMT-34"/>
       <use x="111.230469" xlink:href="#ArialMT-30"/>
      </g>
     </g>
    </g>
    <g id="xtick_7">
     <g id="line2d_13">
      <path clip-path="url(#p63a7358dd7)" d="M 456.3699 352.44 
L 456.3699 47.52 
" style="fill:none;stroke:#ffffff;stroke-linecap:round;"/>
     </g>
     <g id="line2d_14"/>
     <g id="text_7">
      <!-- 160 -->
      <g style="fill:#262626;" transform="translate(448.028493 366.597813)scale(0.1 -0.1)">
       <use xlink:href="#ArialMT-31"/>
       <use x="55.615234" xlink:href="#ArialMT-36"/>
       <use x="111.230469" xlink:href="#ArialMT-30"/>
      </g>
     </g>
    </g>
    <g id="xtick_8">
     <g id="line2d_15">
      <path clip-path="url(#p63a7358dd7)" d="M 518.104846 352.44 
L 518.104846 47.52 
" style="fill:none;stroke:#ffffff;stroke-linecap:round;"/>
     </g>
     <g id="line2d_16"/>
     <g id="text_8">
      <!-- 180 -->
      <g style="fill:#262626;" transform="translate(509.76344 366.597813)scale(0.1 -0.1)">
       <use xlink:href="#ArialMT-31"/>
       <use x="55.615234" xlink:href="#ArialMT-38"/>
       <use x="111.230469" xlink:href="#ArialMT-30"/>
      </g>
     </g>
    </g>
   </g>
   <g id="matplotlib.axis_2">
    <g id="ytick_1">
     <g id="line2d_17">
      <path clip-path="url(#p63a7358dd7)" d="M 72 352.44 
L 518.4 352.44 
" style="fill:none;stroke:#ffffff;stroke-linecap:round;"/>
     </g>
     <g id="line2d_18"/>
     <g id="text_9">
      <!-- 0.0 -->
      <defs>
       <path d="M 9.078125 0 
L 9.078125 10.015625 
L 19.09375 10.015625 
L 19.09375 0 
z
" id="ArialMT-2e"/>
      </defs>
      <g style="fill:#262626;" transform="translate(51.1 356.018906)scale(0.1 -0.1)">
       <use xlink:href="#ArialMT-30"/>
       <use x="55.615234" xlink:href="#ArialMT-2e"/>
       <use x="83.398438" xlink:href="#ArialMT-30"/>
      </g>
     </g>
    </g>
    <g id="ytick_2">
     <g id="line2d_19">
      <path clip-path="url(#p63a7358dd7)" d="M 72 311.083587 
L 518.4 311.083587 
" style="fill:none;stroke:#ffffff;stroke-linecap:round;"/>
     </g>
     <g id="line2d_20"/>
     <g id="text_10">
      <!-- 0.2 -->
      <g style="fill:#262626;" transform="translate(51.1 314.662493)scale(0.1 -0.1)">
       <use xlink:href="#ArialMT-30"/>
       <use x="55.615234" xlink:href="#ArialMT-2e"/>
       <use x="83.398438" xlink:href="#ArialMT-32"/>
      </g>
     </g>
    </g>
    <g id="ytick_3">
     <g id="line2d_21">
      <path clip-path="url(#p63a7358dd7)" d="M 72 269.727173 
L 518.4 269.727173 
" style="fill:none;stroke:#ffffff;stroke-linecap:round;"/>
     </g>
     <g id="line2d_22"/>
     <g id="text_11">
      <!-- 0.4 -->
      <g style="fill:#262626;" transform="translate(51.1 273.30608)scale(0.1 -0.1)">
       <use xlink:href="#ArialMT-30"/>
       <use x="55.615234" xlink:href="#ArialMT-2e"/>
       <use x="83.398438" xlink:href="#ArialMT-34"/>
      </g>
     </g>
    </g>
    <g id="ytick_4">
     <g id="line2d_23">
      <path clip-path="url(#p63a7358dd7)" d="M 72 228.37076 
L 518.4 228.37076 
" style="fill:none;stroke:#ffffff;stroke-linecap:round;"/>
     </g>
     <g id="line2d_24"/>
     <g id="text_12">
      <!-- 0.6 -->
      <g style="fill:#262626;" transform="translate(51.1 231.949666)scale(0.1 -0.1)">
       <use xlink:href="#ArialMT-30"/>
       <use x="55.615234" xlink:href="#ArialMT-2e"/>
       <use x="83.398438" xlink:href="#ArialMT-36"/>
      </g>
     </g>
    </g>
    <g id="ytick_5">
     <g id="line2d_25">
      <path clip-path="url(#p63a7358dd7)" d="M 72 187.014347 
L 518.4 187.014347 
" style="fill:none;stroke:#ffffff;stroke-linecap:round;"/>
     </g>
     <g id="line2d_26"/>
     <g id="text_13">
      <!-- 0.8 -->
      <g style="fill:#262626;" transform="translate(51.1 190.593253)scale(0.1 -0.1)">
       <use xlink:href="#ArialMT-30"/>
       <use x="55.615234" xlink:href="#ArialMT-2e"/>
       <use x="83.398438" xlink:href="#ArialMT-38"/>
      </g>
     </g>
    </g>
    <g id="ytick_6">
     <g id="line2d_27">
      <path clip-path="url(#p63a7358dd7)" d="M 72 145.657933 
L 518.4 145.657933 
" style="fill:none;stroke:#ffffff;stroke-linecap:round;"/>
     </g>
     <g id="line2d_28"/>
     <g id="text_14">
      <!-- 1.0 -->
      <g style="fill:#262626;" transform="translate(51.1 149.236839)scale(0.1 -0.1)">
       <use xlink:href="#ArialMT-31"/>
       <use x="55.615234" xlink:href="#ArialMT-2e"/>
       <use x="83.398438" xlink:href="#ArialMT-30"/>
      </g>
     </g>
    </g>
    <g id="ytick_7">
     <g id="line2d_29">
      <path clip-path="url(#p63a7358dd7)" d="M 72 104.30152 
L 518.4 104.30152 
" style="fill:none;stroke:#ffffff;stroke-linecap:round;"/>
     </g>
     <g id="line2d_30"/>
     <g id="text_15">
      <!-- 1.2 -->
      <g style="fill:#262626;" transform="translate(51.1 107.880426)scale(0.1 -0.1)">
       <use xlink:href="#ArialMT-31"/>
       <use x="55.615234" xlink:href="#ArialMT-2e"/>
       <use x="83.398438" xlink:href="#ArialMT-32"/>
      </g>
     </g>
    </g>
    <g id="ytick_8">
     <g id="line2d_31">
      <path clip-path="url(#p63a7358dd7)" d="M 72 62.945106 
L 518.4 62.945106 
" style="fill:none;stroke:#ffffff;stroke-linecap:round;"/>
     </g>
     <g id="line2d_32"/>
     <g id="text_16">
      <!-- 1.4 -->
      <g style="fill:#262626;" transform="translate(51.1 66.524013)scale(0.1 -0.1)">
       <use xlink:href="#ArialMT-31"/>
       <use x="55.615234" xlink:href="#ArialMT-2e"/>
       <use x="83.398438" xlink:href="#ArialMT-34"/>
      </g>
     </g>
    </g>
   </g>
   <g id="patch_3">
    <path clip-path="url(#p63a7358dd7)" d="M 117.632613 352.44 
L 119.080516 352.44 
L 119.080516 264.273327 
L 117.632613 264.273327 
z
" style="fill:#ff0000;opacity:0.4;"/>
   </g>
   <g id="patch_4">
    <path clip-path="url(#p63a7358dd7)" d="M 119.080516 352.44 
L 120.528419 352.44 
L 120.528419 352.44 
L 119.080516 352.44 
z
" style="fill:#ff0000;opacity:0.4;"/>
   </g>
   <g id="patch_5">
    <path clip-path="url(#p63a7358dd7)" d="M 120.528419 352.44 
L 121.976322 352.44 
L 121.976322 352.44 
L 120.528419 352.44 
z
" style="fill:#ff0000;opacity:0.4;"/>
   </g>
   <g id="patch_6">
    <path clip-path="url(#p63a7358dd7)" d="M 121.976322 352.44 
L 123.424225 352.44 
L 123.424225 352.44 
L 121.976322 352.44 
z
" style="fill:#ff0000;opacity:0.4;"/>
   </g>
   <g id="patch_7">
    <path clip-path="url(#p63a7358dd7)" d="M 123.424225 352.44 
L 124.872128 352.44 
L 124.872128 352.44 
L 123.424225 352.44 
z
" style="fill:#ff0000;opacity:0.4;"/>
   </g>
   <g id="patch_8">
    <path clip-path="url(#p63a7358dd7)" d="M 124.872128 352.44 
L 126.320031 352.44 
L 126.320031 264.273327 
L 124.872128 264.273327 
z
" style="fill:#ff0000;opacity:0.4;"/>
   </g>
   <g id="patch_9">
    <path clip-path="url(#p63a7358dd7)" d="M 126.320031 352.44 
L 127.767934 352.44 
L 127.767934 87.939981 
L 126.320031 87.939981 
z
" style="fill:#ff0000;opacity:0.4;"/>
   </g>
   <g id="patch_10">
    <path clip-path="url(#p63a7358dd7)" d="M 137.512609 352.44 
L 149.3323 352.44 
L 149.3323 330.839301 
L 137.512609 330.839301 
z
" style="fill:#ff6347;opacity:0.4;"/>
   </g>
   <g id="patch_11">
    <path clip-path="url(#p63a7358dd7)" d="M 149.3323 352.44 
L 161.151992 352.44 
L 161.151992 330.839301 
L 149.3323 330.839301 
z
" style="fill:#ff6347;opacity:0.4;"/>
   </g>
   <g id="patch_12">
    <path clip-path="url(#p63a7358dd7)" d="M 161.151992 352.44 
L 172.971683 352.44 
L 172.971683 341.639651 
L 161.151992 341.639651 
z
" style="fill:#ff6347;opacity:0.4;"/>
   </g>
   <g id="patch_13">
    <path clip-path="url(#p63a7358dd7)" d="M 94.097149 352.44 
L 95.286013 352.44 
L 95.286013 245.062888 
L 94.097149 245.062888 
z
" style="fill:#0000ff;opacity:0.4;"/>
   </g>
   <g id="patch_14">
    <path clip-path="url(#p63a7358dd7)" d="M 95.286013 352.44 
L 96.474877 352.44 
L 96.474877 352.44 
L 95.286013 352.44 
z
" style="fill:#0000ff;opacity:0.4;"/>
   </g>
   <g id="patch_15">
    <path clip-path="url(#p63a7358dd7)" d="M 96.474877 352.44 
L 97.663742 352.44 
L 97.663742 352.44 
L 96.474877 352.44 
z
" style="fill:#0000ff;opacity:0.4;"/>
   </g>
   <g id="patch_16">
    <path clip-path="url(#p63a7358dd7)" d="M 97.663742 352.44 
L 98.852606 352.44 
L 98.852606 352.44 
L 97.663742 352.44 
z
" style="fill:#0000ff;opacity:0.4;"/>
   </g>
   <g id="patch_17">
    <path clip-path="url(#p63a7358dd7)" d="M 98.852606 352.44 
L 100.04147 352.44 
L 100.04147 352.44 
L 98.852606 352.44 
z
" style="fill:#0000ff;opacity:0.4;"/>
   </g>
   <g id="patch_18">
    <path clip-path="url(#p63a7358dd7)" d="M 100.04147 352.44 
L 101.230334 352.44 
L 101.230334 352.44 
L 100.04147 352.44 
z
" style="fill:#0000ff;opacity:0.4;"/>
   </g>
   <g id="patch_19">
    <path clip-path="url(#p63a7358dd7)" d="M 101.230334 352.44 
L 102.419198 352.44 
L 102.419198 137.685775 
L 101.230334 137.685775 
z
" style="fill:#0000ff;opacity:0.4;"/>
   </g>
   <g id="patch_20">
    <path clip-path="url(#p63a7358dd7)" d="M 102.419198 352.44 
L 103.608062 352.44 
L 103.608062 245.062888 
L 102.419198 245.062888 
z
" style="fill:#0000ff;opacity:0.4;"/>
   </g>
   <g id="patch_21">
    <path clip-path="url(#p63a7358dd7)" d="M 103.608062 352.44 
L 104.796926 352.44 
L 104.796926 352.44 
L 103.608062 352.44 
z
" style="fill:#0000ff;opacity:0.4;"/>
   </g>
   <g id="patch_22">
    <path clip-path="url(#p63a7358dd7)" d="M 104.796926 352.44 
L 105.98579 352.44 
L 105.98579 352.44 
L 104.796926 352.44 
z
" style="fill:#0000ff;opacity:0.4;"/>
   </g>
   <g id="patch_23">
    <path clip-path="url(#p63a7358dd7)" d="M 105.98579 352.44 
L 107.174655 352.44 
L 107.174655 352.44 
L 105.98579 352.44 
z
" style="fill:#0000ff;opacity:0.4;"/>
   </g>
   <g id="patch_24">
    <path clip-path="url(#p63a7358dd7)" d="M 107.174655 352.44 
L 108.363519 352.44 
L 108.363519 352.44 
L 107.174655 352.44 
z
" style="fill:#0000ff;opacity:0.4;"/>
   </g>
   <g id="patch_25">
    <path clip-path="url(#p63a7358dd7)" d="M 108.363519 352.44 
L 109.552383 352.44 
L 109.552383 352.44 
L 108.363519 352.44 
z
" style="fill:#0000ff;opacity:0.4;"/>
   </g>
   <g id="patch_26">
    <path clip-path="url(#p63a7358dd7)" d="M 109.552383 352.44 
L 110.741247 352.44 
L 110.741247 352.44 
L 109.552383 352.44 
z
" style="fill:#0000ff;opacity:0.4;"/>
   </g>
   <g id="patch_27">
    <path clip-path="url(#p63a7358dd7)" d="M 110.741247 352.44 
L 111.930111 352.44 
L 111.930111 352.44 
L 110.741247 352.44 
z
" style="fill:#0000ff;opacity:0.4;"/>
   </g>
   <g id="patch_28">
    <path clip-path="url(#p63a7358dd7)" d="M 111.930111 352.44 
L 113.118975 352.44 
L 113.118975 352.44 
L 111.930111 352.44 
z
" style="fill:#0000ff;opacity:0.4;"/>
   </g>
   <g id="patch_29">
    <path clip-path="url(#p63a7358dd7)" d="M 113.118975 352.44 
L 114.307839 352.44 
L 114.307839 352.44 
L 113.118975 352.44 
z
" style="fill:#0000ff;opacity:0.4;"/>
   </g>
   <g id="patch_30">
    <path clip-path="url(#p63a7358dd7)" d="M 114.307839 352.44 
L 115.496704 352.44 
L 115.496704 352.44 
L 114.307839 352.44 
z
" style="fill:#0000ff;opacity:0.4;"/>
   </g>
   <g id="patch_31">
    <path clip-path="url(#p63a7358dd7)" d="M 115.496704 352.44 
L 116.685568 352.44 
L 116.685568 352.44 
L 115.496704 352.44 
z
" style="fill:#0000ff;opacity:0.4;"/>
   </g>
   <g id="patch_32">
    <path clip-path="url(#p63a7358dd7)" d="M 116.685568 352.44 
L 117.874432 352.44 
L 117.874432 352.44 
L 116.685568 352.44 
z
" style="fill:#0000ff;opacity:0.4;"/>
   </g>
   <g id="patch_33">
    <path clip-path="url(#p63a7358dd7)" d="M 117.874432 352.44 
L 119.063296 352.44 
L 119.063296 352.44 
L 117.874432 352.44 
z
" style="fill:#0000ff;opacity:0.4;"/>
   </g>
   <g id="patch_34">
    <path clip-path="url(#p63a7358dd7)" d="M 119.063296 352.44 
L 120.25216 352.44 
L 120.25216 245.062888 
L 119.063296 245.062888 
z
" style="fill:#0000ff;opacity:0.4;"/>
   </g>
   <g id="patch_35">
    <path clip-path="url(#p63a7358dd7)" d="M 465.786472 352.44 
L 467.105241 352.44 
L 467.105241 255.64 
L 465.786472 255.64 
z
" style="fill:#4682b4;opacity:0.4;"/>
   </g>
   <g id="patch_36">
    <path clip-path="url(#p63a7358dd7)" d="M 467.105241 352.44 
L 468.424009 352.44 
L 468.424009 352.44 
L 467.105241 352.44 
z
" style="fill:#4682b4;opacity:0.4;"/>
   </g>
   <g id="patch_37">
    <path clip-path="url(#p63a7358dd7)" d="M 468.424009 352.44 
L 469.742778 352.44 
L 469.742778 352.44 
L 468.424009 352.44 
z
" style="fill:#4682b4;opacity:0.4;"/>
   </g>
   <g id="patch_38">
    <path clip-path="url(#p63a7358dd7)" d="M 469.742778 352.44 
L 471.061546 352.44 
L 471.061546 352.44 
L 469.742778 352.44 
z
" style="fill:#4682b4;opacity:0.4;"/>
   </g>
   <g id="patch_39">
    <path clip-path="url(#p63a7358dd7)" d="M 471.061546 352.44 
L 472.380315 352.44 
L 472.380315 352.44 
L 471.061546 352.44 
z
" style="fill:#4682b4;opacity:0.4;"/>
   </g>
   <g id="patch_40">
    <path clip-path="url(#p63a7358dd7)" d="M 472.380315 352.44 
L 473.699083 352.44 
L 473.699083 352.44 
L 472.380315 352.44 
z
" style="fill:#4682b4;opacity:0.4;"/>
   </g>
   <g id="patch_41">
    <path clip-path="url(#p63a7358dd7)" d="M 473.699083 352.44 
L 475.017852 352.44 
L 475.017852 352.44 
L 473.699083 352.44 
z
" style="fill:#4682b4;opacity:0.4;"/>
   </g>
   <g id="patch_42">
    <path clip-path="url(#p63a7358dd7)" d="M 475.017852 352.44 
L 476.336621 352.44 
L 476.336621 352.44 
L 475.017852 352.44 
z
" style="fill:#4682b4;opacity:0.4;"/>
   </g>
   <g id="patch_43">
    <path clip-path="url(#p63a7358dd7)" d="M 476.336621 352.44 
L 477.655389 352.44 
L 477.655389 352.44 
L 476.336621 352.44 
z
" style="fill:#4682b4;opacity:0.4;"/>
   </g>
   <g id="patch_44">
    <path clip-path="url(#p63a7358dd7)" d="M 477.655389 352.44 
L 478.974158 352.44 
L 478.974158 352.44 
L 477.655389 352.44 
z
" style="fill:#4682b4;opacity:0.4;"/>
   </g>
   <g id="patch_45">
    <path clip-path="url(#p63a7358dd7)" d="M 478.974158 352.44 
L 480.292926 352.44 
L 480.292926 352.44 
L 478.974158 352.44 
z
" style="fill:#4682b4;opacity:0.4;"/>
   </g>
   <g id="patch_46">
    <path clip-path="url(#p63a7358dd7)" d="M 480.292926 352.44 
L 481.611695 352.44 
L 481.611695 352.44 
L 480.292926 352.44 
z
" style="fill:#4682b4;opacity:0.4;"/>
   </g>
   <g id="patch_47">
    <path clip-path="url(#p63a7358dd7)" d="M 481.611695 352.44 
L 482.930463 352.44 
L 482.930463 352.44 
L 481.611695 352.44 
z
" style="fill:#4682b4;opacity:0.4;"/>
   </g>
   <g id="patch_48">
    <path clip-path="url(#p63a7358dd7)" d="M 482.930463 352.44 
L 484.249232 352.44 
L 484.249232 352.44 
L 482.930463 352.44 
z
" style="fill:#4682b4;opacity:0.4;"/>
   </g>
   <g id="patch_49">
    <path clip-path="url(#p63a7358dd7)" d="M 484.249232 352.44 
L 485.568001 352.44 
L 485.568001 62.04 
L 484.249232 62.04 
z
" style="fill:#4682b4;opacity:0.4;"/>
   </g>
   <g id="patch_50">
    <path clip-path="url(#p63a7358dd7)" d="M 485.568001 352.44 
L 486.886769 352.44 
L 486.886769 352.44 
L 485.568001 352.44 
z
" style="fill:#4682b4;opacity:0.4;"/>
   </g>
   <g id="patch_51">
    <path clip-path="url(#p63a7358dd7)" d="M 486.886769 352.44 
L 488.205538 352.44 
L 488.205538 352.44 
L 486.886769 352.44 
z
" style="fill:#4682b4;opacity:0.4;"/>
   </g>
   <g id="patch_52">
    <path clip-path="url(#p63a7358dd7)" d="M 488.205538 352.44 
L 489.524306 352.44 
L 489.524306 352.44 
L 488.205538 352.44 
z
" style="fill:#4682b4;opacity:0.4;"/>
   </g>
   <g id="patch_53">
    <path clip-path="url(#p63a7358dd7)" d="M 489.524306 352.44 
L 490.843075 352.44 
L 490.843075 352.44 
L 489.524306 352.44 
z
" style="fill:#4682b4;opacity:0.4;"/>
   </g>
   <g id="patch_54">
    <path clip-path="url(#p63a7358dd7)" d="M 490.843075 352.44 
L 492.161843 352.44 
L 492.161843 352.44 
L 490.843075 352.44 
z
" style="fill:#4682b4;opacity:0.4;"/>
   </g>
   <g id="patch_55">
    <path clip-path="url(#p63a7358dd7)" d="M 492.161843 352.44 
L 493.480612 352.44 
L 493.480612 352.44 
L 492.161843 352.44 
z
" style="fill:#4682b4;opacity:0.4;"/>
   </g>
   <g id="patch_56">
    <path clip-path="url(#p63a7358dd7)" d="M 493.480612 352.44 
L 494.799381 352.44 
L 494.799381 352.44 
L 493.480612 352.44 
z
" style="fill:#4682b4;opacity:0.4;"/>
   </g>
   <g id="patch_57">
    <path clip-path="url(#p63a7358dd7)" d="M 494.799381 352.44 
L 496.118149 352.44 
L 496.118149 255.64 
L 494.799381 255.64 
z
" style="fill:#4682b4;opacity:0.4;"/>
   </g>
   <g id="line2d_33">
    <path clip-path="url(#p63a7358dd7)" d="M 115.176934 351.220143 
L 115.295411 351.016202 
L 115.532367 349.903878 
L 115.769323 347.575225 
L 116.124756 340.806096 
L 116.480189 329.163643 
L 117.428012 292.599527 
L 117.664967 290.77703 
L 117.783445 291.75059 
L 118.020401 297.176845 
L 118.494312 316.658792 
L 119.086701 339.371416 
L 119.442134 346.864065 
L 119.797567 350.463912 
L 120.153001 351.858315 
L 120.508434 352.297779 
L 120.982345 352.423645 
L 122.167123 352.396445 
L 122.522557 352.234726 
L 122.759512 351.918651 
L 122.996468 351.218731 
L 123.233423 349.799593 
L 123.470379 347.166112 
L 123.825812 339.565733 
L 124.181246 325.858167 
L 124.655157 297.399772 
L 126.07689 201.843033 
L 126.432324 192.571861 
L 126.550802 191.928185 
L 126.669279 192.574906 
L 126.906235 197.633044 
L 127.261668 213.401658 
L 127.854057 253.736628 
L 128.80188 320.734466 
L 129.275791 340.119646 
L 129.631224 347.413064 
L 129.986658 350.557402 
L 130.223613 351.215593 
L 130.223613 351.215593 
" style="fill:none;stroke:#ff0000;stroke-linecap:round;stroke-width:1.75;"/>
   </g>
   <g id="line2d_34">
    <path clip-path="url(#p63a7358dd7)" d="M 118.106134 352.275858 
L 120.44541 352.163089 
L 122.784687 351.820717 
L 124.539144 351.347149 
L 126.293601 350.630477 
L 128.048058 349.639243 
L 129.802516 348.383221 
L 132.141792 346.40986 
L 136.820345 342.370712 
L 140.329259 339.749461 
L 147.931908 334.27246 
L 149.101546 333.732206 
L 150.271184 333.402966 
L 151.440822 333.313524 
L 152.61046 333.473397 
L 153.780098 333.87285 
L 154.949737 334.485732 
L 156.704194 335.719296 
L 159.628289 338.211017 
L 161.967566 340.141049 
L 163.722023 341.316044 
L 165.47648 342.155912 
L 167.230938 342.661899 
L 169.570214 343.00317 
L 171.90949 343.360771 
L 173.663948 343.89135 
L 175.418405 344.743759 
L 177.172862 345.886358 
L 183.021053 350.046529 
L 184.77551 350.917943 
L 186.529968 351.53694 
L 188.284425 351.935896 
L 190.623701 352.210054 
L 192.378158 352.275919 
L 192.378158 352.275919 
" style="fill:none;stroke:#ff6347;stroke-linecap:round;stroke-width:1.75;"/>
   </g>
   <g id="line2d_35">
    <path clip-path="url(#p63a7358dd7)" d="M 92.290909 351.09052 
L 92.525299 349.354365 
L 92.759688 344.913194 
L 92.994078 336.235292 
L 93.462858 303.911399 
L 93.931637 271.854877 
L 94.166027 269.271143 
L 94.400416 278.445479 
L 95.337975 341.988766 
L 95.572365 348.029554 
L 95.806754 350.837421 
L 96.041144 351.938634 
L 96.275534 352.304954 
L 96.744313 352.433747 
L 99.55699 352.42921 
L 99.791379 352.385575 
L 100.025769 352.203397 
L 100.260159 351.553427 
L 100.494548 349.57609 
L 100.728938 344.462295 
L 100.963328 333.267457 
L 101.197717 312.653847 
L 101.666497 241.328762 
L 102.135276 172.766597 
L 102.369666 161.346211 
L 102.604056 167.243231 
L 103.072835 207.687935 
L 104.244783 329.088164 
L 104.713563 347.632475 
L 104.947953 350.687188 
L 105.182342 351.889169 
L 105.416732 352.290928 
L 105.885511 352.433036 
L 110.573305 352.44 
L 117.839386 352.408682 
L 118.073775 352.304954 
L 118.308165 351.938634 
L 118.542555 350.837421 
L 118.776944 348.029554 
L 119.011334 341.988766 
L 119.245724 331.113756 
L 120.183283 269.271143 
L 120.417672 271.854877 
L 120.886452 303.911399 
L 121.355231 336.235292 
L 121.589621 344.913194 
L 121.82401 349.354365 
L 122.0584 351.09052 
L 122.0584 351.09052 
" style="fill:none;stroke:#0000ff;stroke-linecap:round;stroke-width:1.75;"/>
   </g>
   <g id="line2d_36">
    <path clip-path="url(#p63a7358dd7)" d="M 463.79553 351.243909 
L 464.065716 349.528903 
L 464.335901 345.051972 
L 464.606087 336.2134 
L 465.146458 304.22348 
L 465.416643 287.269076 
L 465.686829 277.513351 
L 465.957014 279.145348 
L 466.2272 291.417366 
L 467.037756 339.018937 
L 467.307942 346.562536 
L 467.578127 350.247198 
L 467.848313 351.743004 
L 468.118498 352.251255 
L 468.65887 352.431444 
L 472.981838 352.44 
L 481.627774 352.414555 
L 481.89796 352.313708 
L 482.168145 351.907509 
L 482.438331 350.532496 
L 482.708516 346.632877 
L 482.978702 337.407387 
L 483.248887 319.317667 
L 483.789258 252.405479 
L 484.32963 186.008357 
L 484.599815 175.580461 
L 484.870001 182.579966 
L 485.410372 225.850727 
L 486.491114 325.148321 
L 486.761299 338.767406 
L 487.031485 346.539802 
L 487.30167 350.257683 
L 487.571856 351.750052 
L 487.842041 352.25383 
L 488.382412 352.431599 
L 492.705381 352.439796 
L 493.515937 352.396458 
L 493.786123 352.251255 
L 494.056308 351.743004 
L 494.326494 350.247198 
L 494.596679 346.562536 
L 494.866865 339.018937 
L 495.407236 309.187202 
L 495.947607 279.145348 
L 496.217792 277.513351 
L 496.487978 287.269076 
L 497.298534 336.2134 
L 497.56872 345.051972 
L 497.838905 349.528903 
L 498.109091 351.243909 
L 498.109091 351.243909 
" style="fill:none;stroke:#4682b4;stroke-linecap:round;stroke-width:1.75;"/>
   </g>
   <g id="patch_58">
    <path d="M 72 352.44 
L 72 47.52 
" style="fill:none;"/>
   </g>
   <g id="patch_59">
    <path d="M 518.4 352.44 
L 518.4 47.52 
" style="fill:none;"/>
   </g>
   <g id="patch_60">
    <path d="M 72 352.44 
L 518.4 352.44 
" style="fill:none;"/>
   </g>
   <g id="patch_61">
    <path d="M 72 47.52 
L 518.4 47.52 
" style="fill:none;"/>
   </g>
  </g>
 </g>
 <defs>
  <clipPath id="p63a7358dd7">
   <rect height="304.92" width="446.4" x="72" y="47.52"/>
  </clipPath>
 </defs>
</svg>
